<svg xmlns="http://www.w3.org/2000/svg" viewBox="0 0 500 500"><g id="freepik--background-complete--inject-54"><rect x="416.78" y="398.49" width="33.12" height="0.25" style="fill:#ebebeb"></rect><rect x="322.53" y="401.21" width="8.69" height="0.25" style="fill:#ebebeb"></rect><rect x="396.59" y="389.21" width="19.19" height="0.25" style="fill:#ebebeb"></rect><rect x="52.46" y="390.89" width="43.19" height="0.25" style="fill:#ebebeb"></rect><rect x="104.56" y="390.89" width="6.33" height="0.25" style="fill:#ebebeb"></rect><rect x="131.47" y="395.11" width="93.68" height="0.25" style="fill:#ebebeb"></rect><path d="M237,337.8H43.92a5.71,5.71,0,0,1-5.71-5.71V60.66A5.71,5.71,0,0,1,43.92,55H237a5.71,5.71,0,0,1,5.71,5.71V332.09A5.71,5.71,0,0,1,237,337.8ZM43.92,55.2a5.47,5.47,0,0,0-5.46,5.46V332.09a5.47,5.47,0,0,0,5.46,5.46H237a5.47,5.47,0,0,0,5.46-5.46V60.66A5.47,5.47,0,0,0,237,55.2Z" style="fill:#ebebeb"></path><path d="M453.31,337.8H260.21a5.72,5.72,0,0,1-5.71-5.71V60.66A5.72,5.72,0,0,1,260.21,55h193.1A5.71,5.71,0,0,1,459,60.66V332.09A5.71,5.71,0,0,1,453.31,337.8ZM260.21,55.2a5.47,5.47,0,0,0-5.46,5.46V332.09a5.47,5.47,0,0,0,5.46,5.46h193.1a5.47,5.47,0,0,0,5.46-5.46V60.66a5.47,5.47,0,0,0-5.46-5.46Z" style="fill:#ebebeb"></path><rect y="382.4" width="500" height="0.25" style="fill:#ebebeb"></rect><path d="M407.58,378.66V261.73s-27.05,27.44-81,22.85c-39.62-3.37-110.87-36.33-146-53.62a42.94,42.94,0,0,0-41,1.64c-28.6,17.06-77.89,46.45-83.26,49.6l-7.62,4.46v95.13Z" style="fill:#f5f5f5"></path><path d="M161.79,264.36c-1,2.44-3.07,4.28-5.1,6a142,142,0,0,1-27,17.77s-56.57,35.19-81,50.22V286.66l7.63-4.46c5.37-3.15,54.66-32.54,83.27-49.6a42.77,42.77,0,0,1,21.3-6,7.36,7.36,0,0,1,3.15,4.63c.63,3.34-1.37,6.62-3.83,8.95s-5.42,4.11-7.66,6.66c-1.57,1.78-2.74,4.44-1.51,6.47,1.79,2.95,6.57,1.78,9.32,3.86C162.5,258.71,162.81,261.91,161.79,264.36Z" style="fill:#e6e6e6"></path><path d="M47.51,379.15V247.89s30.37,30.8,91,25.65c44.48-3.78,124.46-40.78,163.85-60.19a48.18,48.18,0,0,1,46,1.84c32.11,19.15,87.44,52.14,93.47,55.67l8.56,5V382.66Z" style="fill:#f0f0f0"></path><path d="M348.91,299.73a732.62,732.62,0,0,1-95.46,33.48c-3.51,1-7.89,3.14-7.28,6.73.65,3.86,6,4.14,9.9,3.51A273.36,273.36,0,0,1,324.88,341c5.84.54,13.14,2.66,13.76,8.5.53,5.07-4.58,8.74-9.08,11.13A347.08,347.08,0,0,1,283,381.2L47.51,379.15V247.89s30.37,30.8,91,25.65c44.48-3.78,124.46-40.78,163.85-60.19a47.83,47.83,0,0,1,10-3.62c-2,8.79.7,18.75,8.8,22.23,4.77,2,10.21,1.46,15.38,2s10.94,2.84,12.43,7.82c1.6,5.32-2.42,10.53-6,14.78s-7.15,10-4.69,15c4,8.14,19.39,5.09,22.25,13.69C362.66,291.71,355.19,297,348.91,299.73Z" style="fill:#e0e0e0"></path><path d="M356,148l20.54-.4,1.71.73A33.74,33.74,0,0,0,407.4,147h0l17.19-.33s16-6.37,13.57-22.36-26.4-2.17-26.4-2.17,6.92-22.52-16.46-15.72-25.25,29-25.25,29S339.08,130.64,356,148Z" style="fill:#f0f0f0"></path><path d="M119.18,203.71H63c-7.2,0-8.93-10.07-2.14-12.44l.26-.09c-7.51-6.26,9-19.46,26.89-1.18-1.4-6.09,14.52-3.89,19.39,4.42C109.16,189,124.35,198.45,119.18,203.71Z" style="fill:#f0f0f0"></path></g><g id="freepik--Shadow--inject-54"><ellipse id="freepik--path--inject-54" cx="245.18" cy="412.39" rx="193.89" ry="11.32" style="fill:#f5f5f5"></ellipse></g><g id="freepik--Sun--inject-54"><circle cx="134.78" cy="100.96" r="18.06" style="fill:#FF9800"></circle><circle cx="134.78" cy="100.96" r="18.06" style="fill:#fff;opacity:0.8"></circle></g><g id="freepik--Desert--inject-54"><path d="M406.18,382.43H47.45a6.71,6.71,0,0,1,.76-2.72s172.87-152.56,181.7-159.5l.4-.28a5.4,5.4,0,0,1,6.9.69Z" style="fill:#FF9800"></path><path d="M406.18,382.43H47.45a6.71,6.71,0,0,1,.76-2.72s172.87-152.56,181.7-159.5l.4-.28a5.4,5.4,0,0,1,6.9.69Z" style="fill:#fff;opacity:0.2"></path><path d="M242,263.33c-11.81,13.51-179.8,115.75-194.58,119.1l.76-2.72,182.1-159.78,1.75-.78c-2,3.6-3.81,11.8.3,16.57C238.08,242.36,253.84,249.82,242,263.33Z" style="opacity:0.2"></path><path d="M449.7,382.63l-366.91-.05s180.14-107,188.58-112l.31-.19,1.22-.7,1.13-.65a14.65,14.65,0,0,1,7.16-1.93,15,15,0,0,1,8.64,2.87C322.35,292.73,449.7,382.63,449.7,382.63Z" style="fill:#FF9800"></path><g style="opacity:0.1"><path d="M449.7,382.63l-366.91-.05s180.14-107,188.58-112l.31-.19,1.22-.7,1.13-.65a14.65,14.65,0,0,1,7.16-1.93,15,15,0,0,1,8.64,2.87C322.35,292.73,449.7,382.63,449.7,382.63Z" style="fill:#fff"></path></g><path d="M292.74,286.15c-.76,5.15-3.71,8.82-6.63,11.64s-6.12,5.44-8,9.87-1.76,11.42,1.25,14c1.87,1.58,4.25,1.07,6.14,2.59,3.06,2.44,3.44,9.36,1.66,13.89s-5,7.15-8.12,9.45a188.86,188.86,0,0,1-82.25,35c-28.08,0-114,0-114,0S271.68,270.41,271.68,270.41c.43-.25.83-.47,1.22-.71l1.14-.64c3.64-1,7.32-1.41,10.83.17C289.65,271.4,293.82,278.71,292.74,286.15Z" style="opacity:0.2"></path></g><g id="freepik--current-location--inject-54"><line x1="321.16" y1="226.71" x2="327.02" y2="226.71" style="fill:none;stroke:#FF9800;stroke-linecap:round;stroke-linejoin:round"></line><line x1="296.2" y1="226.71" x2="315.31" y2="226.71" style="fill:none;stroke:#FF9800;stroke-linecap:round;stroke-linejoin:round"></line><polygon points="365.73 222.42 261.01 222.42 263.55 193.5 368.26 193.5 365.73 222.42" style="fill:#FF9800"></polygon><polygon points="363.61 220.31 258.9 220.31 261.43 191.38 366.14 191.38 363.61 220.31 363.61 220.31" style="fill:#263238"></polygon><path d="M273.57,201.93a3.63,3.63,0,0,1,3.74-3.28,3,3,0,0,1,2.51,1.12l-1,.87a1.85,1.85,0,0,0-1.53-.74,2.16,2.16,0,0,0-2.21,2,1.76,1.76,0,0,0,1.85,2,2.22,2.22,0,0,0,1.67-.75l.86.87a3.57,3.57,0,0,1-2.72,1.13A3,3,0,0,1,273.57,201.93Z" style="fill:#fff"></path><path d="M285.45,200.22,285,205.1h-1.34l.05-.58a2.15,2.15,0,0,1-1.57.66c-1.22,0-2-.69-1.89-2.2l.24-2.76h1.41l-.22,2.55c-.07.82.26,1.18.89,1.18s1.16-.42,1.23-1.31l.22-2.42Z" style="fill:#fff"></path><path d="M289.79,200.15l-.11,1.31-.32,0A1.32,1.32,0,0,0,288,202.8l-.2,2.3h-1.42l.43-4.88h1.35l-.06.65A2.17,2.17,0,0,1,289.79,200.15Z" style="fill:#fff"></path><path d="M293.66,200.15l-.11,1.31-.32,0a1.32,1.32,0,0,0-1.41,1.36l-.2,2.3H290.2l.43-4.88H292l-.06.65A2.17,2.17,0,0,1,293.66,200.15Z" style="fill:#fff"></path><path d="M299,203.06h-3.69a1.18,1.18,0,0,0,1.31,1,1.78,1.78,0,0,0,1.27-.47l.68.82a2.8,2.8,0,0,1-2.08.79,2.29,2.29,0,0,1-2.56-2.52,2.75,2.75,0,0,1,2.82-2.51,2.19,2.19,0,0,1,2.32,2.53C299,202.79,299,202.94,299,203.06Zm-3.63-.82h2.4a1,1,0,0,0-1.11-1A1.28,1.28,0,0,0,295.32,202.24Z" style="fill:#fff"></path><path d="M305,202.31l-.24,2.79h-1.42l.23-2.57c.07-.79-.26-1.15-.89-1.15a1.25,1.25,0,0,0-1.28,1.31l-.21,2.41h-1.42l.43-4.88h1.35l0,.58a2.33,2.33,0,0,1,1.67-.65C304.29,200.15,305.1,200.82,305,202.31Z" style="fill:#fff"></path><path d="M309.17,204.87a2.14,2.14,0,0,1-1.18.31c-1.15,0-1.77-.59-1.67-1.75l.18-2h-.76l.1-1.09h.75l.11-1.18h1.41l-.1,1.18h1.21l-.09,1.09h-1.22l-.17,2a.51.51,0,0,0,.55.64,1,1,0,0,0,.59-.18Z" style="fill:#fff"></path><path d="M313.16,198.76h1.47l-.45,5.15h3.18l-.1,1.19h-4.65Z" style="fill:#fff"></path><path d="M317.79,202.66a2.79,2.79,0,0,1,2.91-2.51,2.26,2.26,0,0,1,2.45,2.51,2.78,2.78,0,0,1-2.89,2.52A2.28,2.28,0,0,1,317.79,202.66Zm3.93,0a1.12,1.12,0,0,0-1.12-1.35,1.37,1.37,0,0,0-1.37,1.35,1.11,1.11,0,0,0,1.13,1.35A1.36,1.36,0,0,0,321.72,202.66Z" style="fill:#fff"></path><path d="M323.73,202.66a2.8,2.8,0,0,1,2.94-2.51,2,2,0,0,1,2.07,1.24l-1.14.59a1.11,1.11,0,0,0-1-.67,1.39,1.39,0,0,0-1.4,1.35,1.13,1.13,0,0,0,1.16,1.35,1.34,1.34,0,0,0,1.16-.67l1,.6a2.5,2.5,0,0,1-2.29,1.24A2.28,2.28,0,0,1,323.73,202.66Z" style="fill:#fff"></path><path d="M333.79,202.32l-.24,2.78h-1.33l.06-.61a1.75,1.75,0,0,1-1.55.69c-1.14,0-1.77-.64-1.69-1.48s.73-1.46,2.22-1.46h1.12c.06-.61-.27-1-1-1a2.54,2.54,0,0,0-1.44.45l-.42-1a4,4,0,0,1,2.15-.59C333.12,200.15,333.92,200.84,333.79,202.32Zm-1.52,1.24,0-.5h-1c-.66,0-.89.25-.92.57s.25.59.75.59A1.14,1.14,0,0,0,332.27,203.56Z" style="fill:#fff"></path><path d="M338,204.87a2.14,2.14,0,0,1-1.18.31c-1.15,0-1.77-.59-1.67-1.75l.18-2h-.76l.1-1.09h.75l.11-1.18h1.41l-.1,1.18H338l-.09,1.09h-1.22l-.17,2a.51.51,0,0,0,.55.64,1,1,0,0,0,.59-.18Z" style="fill:#fff"></path><path d="M339.15,198.76a.88.88,0,0,1,.94-.79c.53,0,.86.32.82.76a.9.9,0,0,1-1,.81A.72.72,0,0,1,339.15,198.76Zm0,1.46h1.41l-.42,4.88h-1.42Z" style="fill:#fff"></path><path d="M341.34,202.66a2.78,2.78,0,0,1,2.9-2.51,2.26,2.26,0,0,1,2.46,2.51,2.78,2.78,0,0,1-2.89,2.52A2.27,2.27,0,0,1,341.34,202.66Zm3.93,0a1.12,1.12,0,0,0-1.13-1.35,1.38,1.38,0,0,0-1.37,1.35,1.12,1.12,0,0,0,1.14,1.35A1.37,1.37,0,0,0,345.27,202.66Z" style="fill:#fff"></path><path d="M352.66,202.31l-.25,2.79H351l.22-2.57c.07-.79-.26-1.15-.89-1.15a1.25,1.25,0,0,0-1.28,1.31l-.21,2.41h-1.42l.43-4.88h1.35l-.05.58a2.33,2.33,0,0,1,1.67-.65A1.74,1.74,0,0,1,352.66,202.31Z" style="fill:#fff"></path><path d="M291.72,209.9h2.1a2.08,2.08,0,0,1,2.34,2.3,2.55,2.55,0,0,1-2.75,2.31h-2.09Zm1.72,3.73a1.53,1.53,0,0,0,1.64-1.43,1.25,1.25,0,0,0-1.39-1.43h-1l-.25,2.86Z" style="fill:#FF9800"></path><path d="M300.27,213h-2.68a.85.85,0,0,0,1,.71,1.29,1.29,0,0,0,.92-.34l.5.59a2,2,0,0,1-1.51.57,1.67,1.67,0,0,1-1.87-1.82,2,2,0,0,1,2.05-1.83,1.59,1.59,0,0,1,1.69,1.84C300.31,212.83,300.29,212.94,300.27,213Zm-2.64-.6h1.75a.77.77,0,0,0-.81-.74A.93.93,0,0,0,297.63,212.43Z" style="fill:#FF9800"></path><path d="M300.54,214.18l.4-.74a2.23,2.23,0,0,0,1.21.34c.47,0,.66-.12.68-.32.05-.58-2.15,0-2-1.4.06-.67.7-1.15,1.74-1.15a2.67,2.67,0,0,1,1.33.31l-.4.73a1.9,1.9,0,0,0-1-.26c-.46,0-.67.14-.69.33-.05.6,2.14,0,2,1.41-.06.66-.71,1.13-1.77,1.13A2.83,2.83,0,0,1,300.54,214.18Z" style="fill:#FF9800"></path><path d="M307.93,213h-2.68a.85.85,0,0,0,.95.71,1.29,1.29,0,0,0,.92-.34l.5.59a2.07,2.07,0,0,1-1.52.57,1.66,1.66,0,0,1-1.86-1.82,2,2,0,0,1,2.05-1.83,1.59,1.59,0,0,1,1.69,1.84C308,212.83,308,212.94,307.93,213Zm-2.64-.6H307a.77.77,0,0,0-.81-.74A.93.93,0,0,0,305.29,212.43Z" style="fill:#FF9800"></path><path d="M311,210.91l-.08,1h-.23a1,1,0,0,0-1,1l-.14,1.67h-1l.31-3.55h1l0,.47A1.57,1.57,0,0,1,311,210.91Z" style="fill:#FF9800"></path><path d="M313.75,214.34a1.57,1.57,0,0,1-.86.22c-.83,0-1.28-.43-1.21-1.27l.13-1.46h-.55l.07-.79h.55l.07-.86h1l-.08.86h.89l-.07.79h-.89l-.12,1.45a.37.37,0,0,0,.4.46.73.73,0,0,0,.43-.13Z" style="fill:#FF9800"></path><path d="M315.46,213.92a1.47,1.47,0,0,1-.24.65l-.45,1h-.66l.39-1a.53.53,0,0,1-.31-.56.67.67,0,0,1,.69-.64A.55.55,0,0,1,315.46,213.92Z" style="fill:#FF9800"></path><path d="M318.18,212.48l.23-2.58h1.07l-.23,2.54c-.07.88.28,1.24.92,1.24s1.06-.36,1.14-1.24l.22-2.54h1.06l-.23,2.58a2.11,2.11,0,0,1-2.27,2.11A1.74,1.74,0,0,1,318.18,212.48Z" style="fill:#FF9800"></path><path d="M326.26,213.52h-2.14l-.49,1h-1.1L325,209.9h1.06l1.66,4.61h-1.12Zm-.26-.81-.58-1.77-.88,1.77Z" style="fill:#FF9800"></path><path d="M331.83,213.65l-.07.86h-3.57l.4-4.61h3.49l-.08.85h-2.42l-.09,1h2.14l-.07.83h-2.14l-.1,1.07Z" style="fill:#FF9800"></path><g style="opacity:0.30000000000000004"><path d="M291.72,209.9h2.1a2.08,2.08,0,0,1,2.34,2.3,2.55,2.55,0,0,1-2.75,2.31h-2.09Zm1.72,3.73a1.53,1.53,0,0,0,1.64-1.43,1.25,1.25,0,0,0-1.39-1.43h-1l-.25,2.86Z"></path><path d="M300.27,213h-2.68a.85.85,0,0,0,1,.71,1.29,1.29,0,0,0,.92-.34l.5.59a2,2,0,0,1-1.51.57,1.67,1.67,0,0,1-1.87-1.82,2,2,0,0,1,2.05-1.83,1.59,1.59,0,0,1,1.69,1.84C300.31,212.83,300.29,212.94,300.27,213Zm-2.64-.6h1.75a.77.77,0,0,0-.81-.74A.93.93,0,0,0,297.63,212.43Z"></path><path d="M300.54,214.18l.4-.74a2.23,2.23,0,0,0,1.21.34c.47,0,.66-.12.68-.32.05-.58-2.15,0-2-1.4.06-.67.7-1.15,1.74-1.15a2.67,2.67,0,0,1,1.33.31l-.4.73a1.9,1.9,0,0,0-1-.26c-.46,0-.67.14-.69.33-.05.6,2.14,0,2,1.41-.06.66-.71,1.13-1.77,1.13A2.83,2.83,0,0,1,300.54,214.18Z"></path><path d="M307.93,213h-2.68a.85.85,0,0,0,.95.71,1.29,1.29,0,0,0,.92-.34l.5.59a2.07,2.07,0,0,1-1.52.57,1.66,1.66,0,0,1-1.86-1.82,2,2,0,0,1,2.05-1.83,1.59,1.59,0,0,1,1.69,1.84C308,212.83,308,212.94,307.93,213Zm-2.64-.6H307a.77.77,0,0,0-.81-.74A.93.93,0,0,0,305.29,212.43Z"></path><path d="M311,210.91l-.08,1h-.23a1,1,0,0,0-1,1l-.14,1.67h-1l.31-3.55h1l0,.47A1.57,1.57,0,0,1,311,210.91Z"></path><path d="M313.75,214.34a1.57,1.57,0,0,1-.86.22c-.83,0-1.28-.43-1.21-1.27l.13-1.46h-.55l.07-.79h.55l.07-.86h1l-.08.86h.89l-.07.79h-.89l-.12,1.45a.37.37,0,0,0,.4.46.73.73,0,0,0,.43-.13Z"></path><path d="M315.46,213.92a1.47,1.47,0,0,1-.24.65l-.45,1h-.66l.39-1a.53.53,0,0,1-.31-.56.67.67,0,0,1,.69-.64A.55.55,0,0,1,315.46,213.92Z"></path><path d="M318.18,212.48l.23-2.58h1.07l-.23,2.54c-.07.88.28,1.24.92,1.24s1.06-.36,1.14-1.24l.22-2.54h1.06l-.23,2.58a2.11,2.11,0,0,1-2.27,2.11A1.74,1.74,0,0,1,318.18,212.48Z"></path><path d="M326.26,213.52h-2.14l-.49,1h-1.1L325,209.9h1.06l1.66,4.61h-1.12Zm-.26-.81-.58-1.77-.88,1.77Z"></path><path d="M331.83,213.65l-.07.86h-3.57l.4-4.61h3.49l-.08.85h-2.42l-.09,1h2.14l-.07.83h-2.14l-.1,1.07Z"></path></g><path d="M323.53,185.59a10.28,10.28,0,0,1-10,9.24,8.34,8.34,0,0,1-8.44-9.24,10.29,10.29,0,0,1,10.05-9.24A8.32,8.32,0,0,1,323.53,185.59Z" style="fill:#FF9800"></path><ellipse cx="314.27" cy="185.81" rx="5.99" ry="5.48" transform="translate(-41.25 268.88) rotate(-43.74)" style="fill:#fff"></ellipse><ellipse cx="314.27" cy="185.81" rx="2.55" ry="2.33" transform="translate(-41.24 268.9) rotate(-43.75)" style="fill:#FF9800"></ellipse><path d="M323.26,80c-16.81,0-31.64,13.63-33.11,30.44S315.38,170,315.38,170,349.57,127.22,351,110.4,340.08,80,323.26,80ZM319.59,125a13,13,0,0,1-13.15-14.41A16.05,16.05,0,0,1,322.11,96.2a13,13,0,0,1,13.16,14.42A16.05,16.05,0,0,1,319.59,125Z" style="fill:#FF9800"></path></g><g id="freepik--Character--inject-54"><g id="freepik--freepik--Character--inject-254--inject-54"><path d="M158.57,189.25l-2.06,2.38c-.69.83-1.38,1.66-2,2.51-1.34,1.68-2.68,3.37-4,5.1a74,74,0,0,0-6.68,10.62l-.53,1.08-.18.4-.14.55a19.32,19.32,0,0,0-.4,2.73,59.63,59.63,0,0,0-.1,6.27c.12,4.32.46,8.8.82,13.19l-4.91,1.14a87.77,87.77,0,0,1-3.6-13.52,55,55,0,0,1-.81-7.23,27,27,0,0,1,.14-4c0-.36.09-.72.18-1.11s.17-.78.28-1.19l.2-.64.11-.33L135,207l.34-.87a53.13,53.13,0,0,1,3.17-6.64,63.75,63.75,0,0,1,3.74-6.1c1.33-2,2.73-3.83,4.21-5.7.73-.92,1.47-1.81,2.25-2.72s1.48-1.76,2.42-2.69Z" style="fill:#b65b52"></path><path d="M138.05,233.63c-.9,3.13,1.4,6.19,1.4,6.19l6.65-3.93-3.4-3.65Z" style="fill:#b55b52"></path><polygon points="146.11 235.89 139.46 239.81 144.06 243.56 150.53 241.29 146.11 235.89" style="fill:#b55b52"></polygon><path d="M175.92,153.23c.36,0,.67.39.69.93s-.23,1-.59,1a.84.84,0,0,1-.69-.93C175.31,153.69,175.57,153.23,175.92,153.23Z" style="fill:#263238"></path><path d="M175.41,160.32a3.09,3.09,0,0,0,2.56-.59,19.78,19.78,0,0,1-2.8-4.53Z" style="fill:#a02724"></path><path d="M173.36,151.24a2.48,2.48,0,0,1,2.24-.5h0a.32.32,0,0,0,.4-.21h0a.32.32,0,0,0-.21-.4,3.14,3.14,0,0,0-2.8.61.31.31,0,0,0,0,.44.34.34,0,0,0,.2.13A.36.36,0,0,0,173.36,151.24Z" style="fill:#263238"></path><path d="M169.38,167.75c-.9,3.82-.87,8.58,3.32,9.87,0,0,5.27,4.38-4.77,4.38-9.15,0-10.55-5-10.55-5,3.39-3.28,2.73-10.09,1.7-15Z" style="fill:#b55b52"></path><path d="M178.31,408.05a.17.17,0,0,1-.13-.13.15.15,0,0,1,.09-.16c.09-.06,2.42-1.4,3.55-1.1a.8.8,0,0,1,.5.38.6.6,0,0,1,0,.7c-.28.38-1.11.5-2,.5A11.73,11.73,0,0,1,178.31,408.05Zm3.08-1.12a7.24,7.24,0,0,0-2.63.84c1.25.18,3,.17,3.26-.26.08-.05.11-.16,0-.35a.5.5,0,0,0-.32-.23Z" style="fill:#FF9800"></path><path d="M178.17,408a.22.22,0,0,1-.06-.15,4.55,4.55,0,0,1,1-2.59,1.15,1.15,0,0,1,.93-.27c.43.05.6.27.6.45.13.75-1.46,2.21-2.27,2.57h-.07A.17.17,0,0,1,178.17,408Zm1.75-2.71a.85.85,0,0,0-.55.2,3.78,3.78,0,0,0-.86,2.07c.82-.5,1.9-1.64,1.82-2.1,0,0,0-.17-.31-.17Z" style="fill:#FF9800"></path><polygon points="171.11 392.34 177.84 392.34 177.37 407.9 170.65 407.9 171.11 392.34" style="fill:#b55b52"></polygon><path d="M179.22,407.64c4.58,2.81,8,2.93,13.23,4.08,1.16.24.43,3-2.32,3-4.57,0-7-.21-10.91-.21-3.34,0-7.16.19-9.8.19a.93.93,0,0,1-.23,0,1,1,0,0,1-.76-1.17l1.25-6a.59.59,0,0,1,.57-.46h7.34A3.15,3.15,0,0,1,179.22,407.64Z" style="fill:#263238"></path><path d="M159.4,193.91a23.83,23.83,0,0,1-10.18,10.49l-10-10.17s9-16.34,15.45-16.42C161.27,177.75,163.21,186.14,159.4,193.91Z" style="fill:#FF9800"></path><path d="M159.4,193.91a23.83,23.83,0,0,1-10.18,10.49l-10-10.17s9-16.34,15.45-16.42C161.27,177.75,163.21,186.14,159.4,193.91Z" style="opacity:0.30000000000000004;isolation:isolate"></path><path d="M177.48,177.7c-1.47-.26-3.14-.51-4.82-.66a134.29,134.29,0,0,0-15.28,0H157c-.27,0-.55,0-.82.07a10.48,10.48,0,0,0-9,11.78c3.08,22.41.76,43.29,1,48.07h35.94c3.61-29.52,2.56-44.44,1.09-51.7A9.64,9.64,0,0,0,177.48,177.7Z" style="fill:#FF9800"></path><path d="M177.48,177.7c-1.47-.26-3.14-.51-4.82-.66a134.29,134.29,0,0,0-15.28,0H157c-.27,0-.55,0-.82.07a10.48,10.48,0,0,0-9,11.78c3.08,22.41.76,43.29,1,48.07h35.94c3.61-29.52,2.56-44.44,1.09-51.7A9.64,9.64,0,0,0,177.48,177.7Z" style="opacity:0.2;isolation:isolate"></path><path d="M186.49,209.55c.25-6.56,0-11.1-4.67-12.62L177,200.22C177.86,204.73,182.48,208.54,186.49,209.55Z" style="opacity:0.2;isolation:isolate"></path><polygon points="171.11 392.34 170.87 400.36 177.59 400.36 177.84 392.34 171.11 392.34" style="opacity:0.2;isolation:isolate"></polygon><path d="M176.23,162.5a9.7,9.7,0,0,1-.72,2.25,9.08,9.08,0,0,1-6.8,5.14,8.38,8.38,0,0,1-7.08-2.24c-3.54-3.27-3.65-7.2-4.42-13.83a9,9,0,0,1,12-9.58C175.9,146.62,177.34,156.47,176.23,162.5Z" style="fill:#b55b52"></path><path d="M150.43,154.05c-1.9,4.88-3.82,9.79-6.85,14.14A5.88,5.88,0,0,1,145.5,167a2.43,2.43,0,0,1,2.34,0c.35.22.6.56.95.78a2.39,2.39,0,0,0,2.63-.34,6.21,6.21,0,0,0,1.51-2.23c.36-.76,1.35-.4,1.89.25a40.21,40.21,0,0,1-1-12.07,2.75,2.75,0,0,0-2.34-.74C150.77,152.72,150.67,153.44,150.43,154.05Z" style="fill:#FF9800"></path><path d="M150.43,154.05c-1.9,4.88-3.82,9.79-6.85,14.14A5.88,5.88,0,0,1,145.5,167a2.43,2.43,0,0,1,2.34,0c.35.22.6.56.95.78a2.39,2.39,0,0,0,2.63-.34,6.21,6.21,0,0,0,1.51-2.23c.36-.76,1.35-.4,1.89.25a40.21,40.21,0,0,1-1-12.07,2.75,2.75,0,0,0-2.34-.74C150.77,152.72,150.67,153.44,150.43,154.05Z" style="opacity:0.2"></path><path d="M175.51,164.75a9.08,9.08,0,0,1-6.8,5.14,2.84,2.84,0,0,1,.44-1.4,40.88,40.88,0,0,0,3.43-7,12.27,12.27,0,0,0,.59-5.41c-.06-.39-.77-2-.58-2.32.33-.5,1.25-.17,1.53.21C174.55,154.59,175.42,163.75,175.51,164.75Z" style="opacity:0.5"></path><path d="M172.86,141.9a4.17,4.17,0,0,0-7.94-.15c-2.46-1.21-5.7-1.35-7.94.23-10.72,7.52-5.91,13.34-4.43,12.38-3.11,5.17-.06,6.36,1.24,6.16-.88.28-1.64,2.52.14,4.68,5.24,6.35,11.8,5.52,15.27.69,1.49,1.09,3.62-.7,3.75-2.54s-.86-3.53-1.36-5.3-1.36-3.85.33-4.59c.51.69,1.08,2,1.6,2.66.45-1.39,1.38-3.81.71-5.11C180.52,143.67,172.86,141.9,172.86,141.9Z" style="fill:#263238"></path><path d="M171.92,153.46c1.84.83,2.54,3.72,2.42,5.5-.12,2-1.57,3.06-3.15,1.54a7.69,7.69,0,0,1-2.21-4.34C168.73,154.18,170.07,152.64,171.92,153.46Z" style="fill:#b55b52"></path><polygon points="119.54 384.04 125.52 386.18 119.58 401.56 113.6 399.42 119.54 384.04" style="fill:#b55b52"></polygon><path d="M120.71,401.12a.17.17,0,0,1,0-.19.16.16,0,0,1,.17-.08c.11,0,2.76.41,3.46,1.34a.79.79,0,0,1,.17.61.63.63,0,0,1-.41.56,2.75,2.75,0,0,1-1.87-.83A11.29,11.29,0,0,1,120.71,401.12Zm.56.13c.86.91,2.22,1.95,2.73,1.8.06,0,.18-.08.18-.3a.47.47,0,0,0-.1-.36,1,1,0,0,0-.22-.23A7.1,7.1,0,0,0,121.27,401.25Z" style="fill:#FF9800"></path><path d="M120.73,401a.14.14,0,0,1,0-.15c0-.05,1.29-1.41,2.39-1.41a1.19,1.19,0,0,1,.86.33c.31.31.28.56.19.72-.36.68-2.51.84-3.37.62h0A.11.11,0,0,1,120.73,401Zm2.4-1.21a3.61,3.61,0,0,0-2,1.1c1,.11,2.51-.12,2.72-.52,0,0,.08-.14-.13-.34a.13.13,0,0,0-.07-.06A.82.82,0,0,0,123.13,399.81Z" style="fill:#FF9800"></path><path d="M121.66,401.36c.41,2.75,1.07,5.32,4.19,9.64.69.94-1.83,2.47-3.89.6-3.41-3-1.15-1.3-4-3.89-2.49-2.21-6.56-5.49-8.67-7.09a1,1,0,0,1-.2-.2.93.93,0,0,1,.2-1.3l5-3.74a.62.62,0,0,1,.75,0l5.77,4.54A2.25,2.25,0,0,1,121.66,401.36Z" style="fill:#263238"></path><path d="M218.31,194.65l-1.67-3.59-7.14,4.41s2.35,4.81,7.23,4.29l1.09-1.31A3.58,3.58,0,0,0,218.31,194.65Z" style="fill:#b55b52"></path><path d="M209.93,189.52l-1.6,1.38a2.3,2.3,0,0,0-.24,3.24l.17.18,1.24,1.15,7.14-4.41-4.28-1.87A2.33,2.33,0,0,0,209.93,189.52Z" style="fill:#b55b52"></path><path d="M212.62,199.24H204.8a.56.56,0,0,1-.57-.63l1.46-16.75a.7.7,0,0,1,.69-.63h7.82a.56.56,0,0,1,.57.63l-1.46,16.75A.7.7,0,0,1,212.62,199.24Z" style="fill:#263238"></path><polygon points="212.4 198.2 205 198.2 206.42 181.95 213.82 181.95 212.4 198.2" style="fill:#FF9800"></polygon><polygon points="211.59 182.21 208.27 182.21 208.16 181.64 211.77 181.64 211.59 182.21" style="fill:#263238"></polygon><polygon points="119.54 384.04 116.48 391.97 122.45 394.11 125.52 386.18 119.54 384.04" style="opacity:0.2;isolation:isolate"></polygon><path d="M148.22,237s-9.4,49.76-12.49,72.32c-8.48,27.3-20.08,77.35-20.08,77.35l10.85,5.88s24.74-63.79,29.41-84.77c4.29-19.16,15.5-70.78,15.5-70.78Z" style="fill:#FF9800"></path><path d="M166.14,261c-3.53,16.14-7.93,36.29-10.27,46.76-.1.5-.23,1-.35,1.57-.15-17.49.8-47.3,9.26-48.43A3.12,3.12,0,0,1,166.14,261Z" style="opacity:0.30000000000000004;isolation:isolate"></path><path d="M160.53,237s4.68,49.54,5.53,72.37c.77,20.93,2.63,89.48,2.63,89.48h11.39s6-69.79,6.47-91.12C187,287.2,184.16,237,184.16,237Z" style="fill:#FF9800"></path><path d="M148.22,237s-9.4,49.76-12.49,72.32c-8.48,27.3-20.08,77.35-20.08,77.35l10.85,5.88s24.74-63.79,29.41-84.77c4.29-19.16,15.5-70.78,15.5-70.78Z" style="fill:#263238"></path><path d="M160.53,237s4.68,49.54,5.53,72.37c.77,20.93,2.63,89.48,2.63,89.48h11.39s6-69.79,6.47-91.12C187,287.2,184.16,237,184.16,237Z" style="fill:#263238"></path><path d="M182,184.69a82.34,82.34,0,0,0,5.27,6.54c1.86,2.1,3.79,4.14,5.84,6.15s4.12,3.91,6.4,6l-1.39-.86a1.63,1.63,0,0,0,.89.24,6.15,6.15,0,0,0,1.76-.21,21.07,21.07,0,0,0,4.46-1.81,50.64,50.64,0,0,0,4.61-2.81c1.54-1,3.08-2.14,4.51-3.21l3.69,3.45c-.64.89-1.26,1.67-1.92,2.44s-1.34,1.56-2.05,2.29a41.47,41.47,0,0,1-4.67,4.22,25.72,25.72,0,0,1-5.87,3.47,16,16,0,0,1-3.91,1,10.52,10.52,0,0,1-4.82-.53l-.64-.22-.77-.64c-2.16-1.78-4.57-3.73-6.88-5.76s-4.56-4.19-6.69-6.46a83.31,83.31,0,0,1-6.06-7.18C171.89,188.25,180.4,182.42,182,184.69Z" style="fill:#b65b52"></path><path d="M183.37,180.42c7.14,5.38,12.44,16.76,12.44,16.76l-14.39,7.89s-11.08-8.08-11.73-17.74C169.21,180,174.55,173.81,183.37,180.42Z" style="fill:#FF9800"></path><path d="M183.37,180.42c7.14,5.38,12.44,16.76,12.44,16.76l-14.39,7.89s-11.08-8.08-11.73-17.74C169.21,180,174.55,173.81,183.37,180.42Z" style="opacity:0.2;isolation:isolate"></path></g><rect x="168.41" y="403.87" width="10.81" height="3.77" rx="1.55" style="fill:#263238"></rect><rect x="113.06" y="394.75" width="10.81" height="3.77" rx="1.55" transform="translate(256.28 6.31) rotate(36.08)" style="fill:#263238"></rect><path d="M153.37,176.93c-7.61,5.2-12.9,13.26-16.31,21.82s-5.08,17.71-6.74,26.77a25.25,25.25,0,0,0,15.77,3.19c1.71,3.42,1.39,7.54.23,11.18s-3.07,7-4.56,10.52c-4.34,10.32-4.82,21.78-6.63,32.84-5,30.59-21.11,55-44.59,75.24,3.47,6,10.35,10,17.18,11.05s13.78.16,20.67-.12,14.09.08,20.21,3.26c5.68,2.95,10,8.11,15.72,11,8.19,4.12,17.93,3,27,1.78,7.35-55.88,6.66-108.86-1.22-164.67-.25-1.79-.76-3.63-1.14-5.4,6.21,3.87,15.33,2.11,19.86-3.64,4.17-5.3-1-13.85-6.12-18.22l1,.35c-1,1.91-5.25.74-6.65-.89s-1.72-3.9-2.36-5.95a18.14,18.14,0,0,0-19.59-12.09C168.32,172.74,159.27,172.89,153.37,176.93Z" style="fill:#FF9800"></path><path d="M203.72,193.86a1,1,0,0,1-.25.33c-.25-.23-.5-.46-.75-.67Z" style="fill:#fff;opacity:0.7000000000000001"></path><path d="M208.84,211.74c-4.53,5.75-13.65,7.5-19.86,3.64.37,1.77.89,3.62,1.14,5.4,7.89,55.8,8.57,108.8,1.22,164.67-9.09,1.22-18.83,2.34-27-1.78-5.73-2.88-10-8-15.72-11-6.13-3.19-13.31-3.56-20.21-3.27s-13.84,1.13-20.67.12S94,364.45,90.54,358.48c23.48-20.23,39.56-44.65,44.59-75.24,1.82-11.05,2.29-22.51,6.64-32.83,1.47-3.53,3.4-6.87,4.55-10.52s1.47-7.76-.22-11.18c-.12,0-.26,0-.38,0a25.07,25.07,0,0,1-9.82-.85s-.05,0-.08,0a24.67,24.67,0,0,1-5.5-2.34c0-.12.05-.23.06-.36,1.65-8.94,3.32-18,6.68-26.41a54.69,54.69,0,0,1,7.05-12.8,38.92,38.92,0,0,1,9.26-9c5.89-4,14.95-4.19,21.74-2A18.15,18.15,0,0,1,194.71,187c.65,2.05.95,4.32,2.36,5.94s5.13,2.66,6.4,1.22C208.34,198.72,212.81,206.7,208.84,211.74Z" style="fill:#fff;opacity:0.8"></path><path d="M145.82,229a21.63,21.63,0,0,1-9.92-1.13s-.05,0-.08,0a20.06,20.06,0,0,1-5.15-2.7,1.4,1.4,0,0,1-.29,0c1.65-8.94,3.32-18,6.68-26.41a54.69,54.69,0,0,1,7.05-12.8,13.76,13.76,0,0,0-1.22,3.57,74.75,74.75,0,0,0,2.83,39.22C145.76,228.85,145.78,228.93,145.82,229Z" style="opacity:0.1"></path><path d="M191.17,227.28c-7.16-7.46-9.25-17.14-9.11-27.48a52.83,52.83,0,0,0,7.32,16.4Z" style="opacity:0.1"></path><path d="M115.25,355.55c-2,2.77-4.24,6.27-2.81,9.4s6,3.74,9,2.08,4.9-4.82,6.57-7.86c11.87-21.62,21.46-44.79,25.1-69.19,0,0-13.8,26.1-16.93,32.07A259.44,259.44,0,0,1,115.25,355.55Z" style="opacity:0.1"></path><path d="M160.6,353.52c-.94,4.07-1.89,8.21-1.58,12.38s2.07,8.42,5.54,10.75,8.76,2.06,11.3-1.26c1.93-2.52,1.9-6,1.79-9.14-.8-22.64-.41-45.7-2.46-68.24C169.51,302,162.94,343.54,160.6,353.52Z" style="opacity:0.1"></path><path d="M151.35,142.61a7.16,7.16,0,0,0-4.44,3.63,6.43,6.43,0,0,0,0,5.69,5.87,5.87,0,0,0,4.67,3.16s-.33,0-.33,0a59.76,59.76,0,0,0,24-3.59,11,11,0,0,0,1.69-3.26,8.18,8.18,0,0,0,.43-3.22A13.45,13.45,0,0,0,176.1,141a3.49,3.49,0,0,0-1.13-1.34c-2.17-1.44-5,1.68-7.41,2.54a16.65,16.65,0,0,1-6.26.52C158.05,142.56,154.48,141.73,151.35,142.61Z" style="fill:#FF9800"></path><path d="M162.4,138.19a13.18,13.18,0,0,1,9.58,1.62c.67.42,1.35,1.05,1.3,1.83s-.79,1.33-1.48,1.7a21.08,21.08,0,0,1-15.66,1.78,5.12,5.12,0,0,1-1.87-.85c-2-1.63,1.15-3.05,2.46-3.84A17.6,17.6,0,0,1,162.4,138.19Z" style="fill:#FF9800"></path><path d="M162.4,138.19a13.18,13.18,0,0,1,9.58,1.62c.67.42,1.35,1.05,1.3,1.83s-.79,1.33-1.48,1.7a21.08,21.08,0,0,1-15.66,1.78,5.12,5.12,0,0,1-1.87-.85c-2-1.63,1.15-3.05,2.46-3.84A17.6,17.6,0,0,1,162.4,138.19Z" style="opacity:0.2"></path><path d="M162.89,150.52a17.73,17.73,0,0,1-10.75-.75,4.1,4.1,0,0,1-2.7-2.37A22.24,22.24,0,0,0,162.89,150.52Z" style="opacity:0.2"></path><path d="M162.43,152.11a17.79,17.79,0,0,0,10.59-2,4.16,4.16,0,0,0,2.4-2.68A22.21,22.21,0,0,1,162.43,152.11Z" style="opacity:0.2"></path></g><g id="freepik--Plant--inject-54"><path d="M328.44,371.84c-2.67-12.68-12.87-20.37-23.26-28.1,6.32,10.84,13.76,20.77,17.09,32.87a58.64,58.64,0,0,0-17.1-16s9.6,18.64,13.27,22.25c-8-7.88-17-12.76-28.12-14.33,20.12,13.36,27.28,25.88,30,33.3a9.13,9.13,0,0,0,8.62,5.9l21.3-.15a9.19,9.19,0,0,0,8.51-6c3.72-10,10.21-18.66,19.85-23.6-8.1,2.26-14.92,3.91-19.79,10.77,3-10,8.18-15.83,17.76-20.06-8.9,1.44-17.68,4.74-21.31,13,1.06-10.1,5.2-17.45,13.24-23.65-7.62,1.15-14.94,6.58-16.4,14.15-.26-10.09.82-20.25,6.33-28.7a31.69,31.69,0,0,0-13.81,21.68c-2.37-8.69-3.55-21.4-13.67-32.77,5.73,17.1,3.57,30.69,3.57,30.69-.86-5.29-8.8-18.75-16.38-23.66C318.17,339.4,329.24,359.12,328.44,371.84Z" style="fill:#FF9800"></path><path d="M307.51,393.45a31,31,0,0,1,9.62,7.51,21.13,21.13,0,0,0-9.68.46L319.2,403a10.92,10.92,0,0,0-6.72,3.47,20.2,20.2,0,0,1,9.83-.45,13,13,0,0,0,3.59.49,3.08,3.08,0,0,0,2.81-1.95,3.76,3.76,0,0,0-.64-2.86C324,394.72,314.85,393.65,307.51,393.45Z" style="fill:#FF9800"></path><path d="M367.55,394.87a35.34,35.34,0,0,1-9.75,6.36,26.65,26.65,0,0,1,11.2.69,22.93,22.93,0,0,1-10,1.65,16.3,16.3,0,0,1,6.06,2.69l-13.67,1.32a4.73,4.73,0,0,1,.35-4C354.34,399.15,362.92,396.21,367.55,394.87Z" style="fill:#FF9800"></path><g style="opacity:0.7000000000000001"><path d="M328.44,371.84c-2.67-12.68-12.87-20.37-23.26-28.1,6.32,10.84,13.76,20.77,17.09,32.87a58.64,58.64,0,0,0-17.1-16s9.6,18.64,13.27,22.25c-8-7.88-17-12.76-28.12-14.33,20.12,13.36,27.28,25.88,30,33.3a9.13,9.13,0,0,0,8.62,5.9l21.3-.15a9.19,9.19,0,0,0,8.51-6c3.72-10,10.21-18.66,19.85-23.6-8.1,2.26-14.92,3.91-19.79,10.77,3-10,8.18-15.83,17.76-20.06-8.9,1.44-17.68,4.74-21.31,13,1.06-10.1,5.2-17.45,13.24-23.65-7.62,1.15-14.94,6.58-16.4,14.15-.26-10.09.82-20.25,6.33-28.7a31.69,31.69,0,0,0-13.81,21.68c-2.37-8.69-3.55-21.4-13.67-32.77,5.73,17.1,3.57,30.69,3.57,30.69-.86-5.29-8.8-18.75-16.38-23.66C318.17,339.4,329.24,359.12,328.44,371.84Z" style="fill:#fff"></path><path d="M307.51,393.45a31,31,0,0,1,9.62,7.51,21.13,21.13,0,0,0-9.68.46L319.2,403a10.92,10.92,0,0,0-6.72,3.47,20.2,20.2,0,0,1,9.83-.45,13,13,0,0,0,3.59.49,3.08,3.08,0,0,0,2.81-1.95,3.76,3.76,0,0,0-.64-2.86C324,394.72,314.85,393.65,307.51,393.45Z" style="fill:#fff"></path><path d="M367.55,394.87a35.34,35.34,0,0,1-9.75,6.36,26.65,26.65,0,0,1,11.2.69,22.93,22.93,0,0,1-10,1.65,16.3,16.3,0,0,1,6.06,2.69l-13.67,1.32a4.73,4.73,0,0,1,.35-4C354.34,399.15,362.92,396.21,367.55,394.87Z" style="fill:#fff"></path></g></g></svg>