<svg xmlns="http://www.w3.org/2000/svg" viewBox="0 0 500 500"><g id="freepik--background-complete--inject-32"><rect y="382.4" width="500" height="0.25" style="fill:#ebebeb"></rect><rect x="416.78" y="398.49" width="33.12" height="0.25" style="fill:#ebebeb"></rect><rect x="322.53" y="401.21" width="8.69" height="0.25" style="fill:#ebebeb"></rect><rect x="396.59" y="389.21" width="19.19" height="0.25" style="fill:#ebebeb"></rect><rect x="52.46" y="390.89" width="43.19" height="0.25" style="fill:#ebebeb"></rect><rect x="104.56" y="390.89" width="6.33" height="0.25" style="fill:#ebebeb"></rect><rect x="131.47" y="395.11" width="93.68" height="0.25" style="fill:#ebebeb"></rect><path d="M237,337.8H43.91a5.71,5.71,0,0,1-5.7-5.71V60.66A5.71,5.71,0,0,1,43.91,55H237a5.71,5.71,0,0,1,5.71,5.71V332.09A5.71,5.71,0,0,1,237,337.8ZM43.91,55.2a5.46,5.46,0,0,0-5.45,5.46V332.09a5.46,5.46,0,0,0,5.45,5.46H237a5.47,5.47,0,0,0,5.46-5.46V60.66A5.47,5.47,0,0,0,237,55.2Z" style="fill:#ebebeb"></path><path d="M453.31,337.8H260.21a5.72,5.72,0,0,1-5.71-5.71V60.66A5.72,5.72,0,0,1,260.21,55h193.1A5.71,5.71,0,0,1,459,60.66V332.09A5.71,5.71,0,0,1,453.31,337.8ZM260.21,55.2a5.47,5.47,0,0,0-5.46,5.46V332.09a5.47,5.47,0,0,0,5.46,5.46h193.1a5.47,5.47,0,0,0,5.46-5.46V60.66a5.47,5.47,0,0,0-5.46-5.46Z" style="fill:#ebebeb"></path><path d="M220.34,106.43H228a1.07,1.07,0,0,1,1.06,1.06V382.56H240.5V107.49a1.07,1.07,0,0,1,1.06-1.06h7.6a1.06,1.06,0,0,0,.75-1.81L235.5,90.22a1,1,0,0,0-1.49,0l-14.41,14.4A1.06,1.06,0,0,0,220.34,106.43Z" style="fill:#ebebeb"></path><path d="M279.35,206.83H287a1.05,1.05,0,0,1,1.06,1.06V382.56h11.5V207.89a1.05,1.05,0,0,1,1.05-1.06h7.61a1.06,1.06,0,0,0,.74-1.81l-14.4-14.4a1.05,1.05,0,0,0-1.5,0L278.6,205A1.06,1.06,0,0,0,279.35,206.83Z" style="fill:#ebebeb"></path><path d="M146.24,264.44h7.61a1.06,1.06,0,0,1,1.06,1.05V382.56H166.4V265.49a1.06,1.06,0,0,1,1.06-1.05h7.6a1.06,1.06,0,0,0,.75-1.81L161.4,248.22a1,1,0,0,0-1.49,0l-14.42,14.41A1.06,1.06,0,0,0,146.24,264.44Z" style="fill:#ebebeb"></path><path d="M112.9,129.11v-10.2l-5.25-.49a27.42,27.42,0,0,0-3.92-9.43l3.37-4.07-7.21-7.21-4.07,3.37a27.23,27.23,0,0,0-9.42-3.91l-.5-5.26H75.7l-.49,5.26a27.08,27.08,0,0,0-9.42,3.91l-4.08-3.37-7.21,7.21L57.87,109A27.4,27.4,0,0,0,54,118.42l-5.25.49v10.2l5.25.49A27.27,27.27,0,0,0,57.87,139L54.5,143.1l7.21,7.21,4.08-3.37a27.27,27.27,0,0,0,9.42,3.91l.49,5.25H85.9l.5-5.25a27.43,27.43,0,0,0,9.42-3.91l4.07,3.37,7.21-7.21L103.73,139a27.28,27.28,0,0,0,3.92-9.42Zm-32.1,8.71A13.81,13.81,0,1,1,94.61,124,13.81,13.81,0,0,1,80.8,137.82Z" style="fill:#e0e0e0"></path><path d="M154.23,157.9v-8l-4.11-.38a21.57,21.57,0,0,0-3.07-7.39l2.64-3.19L144,133.29l-3.19,2.64a21.52,21.52,0,0,0-7.38-3.07l-.39-4.11h-8l-.39,4.11a21.43,21.43,0,0,0-7.38,3.07l-3.2-2.64-5.65,5.65,2.65,3.19a21.18,21.18,0,0,0-3.07,7.39l-4.12.38v8l4.12.38a21.18,21.18,0,0,0,3.07,7.39l-2.65,3.19,5.65,5.65,3.2-2.64a21.43,21.43,0,0,0,7.38,3.07l.39,4.11h8l.39-4.11a21.52,21.52,0,0,0,7.38-3.07l3.19,2.64,5.65-5.65-2.64-3.19a21.57,21.57,0,0,0,3.07-7.39Zm-25.15,6.82A10.82,10.82,0,1,1,139.9,153.9,10.82,10.82,0,0,1,129.08,164.72Z" style="fill:#e0e0e0"></path><path d="M109.9,181.59v-6.72l-3.46-.32a17.92,17.92,0,0,0-2.58-6.2l2.22-2.68-4.74-4.75-2.69,2.22a17.92,17.92,0,0,0-6.2-2.58l-.32-3.46H85.42l-.33,3.46a18,18,0,0,0-6.2,2.58l-2.68-2.22-4.75,4.75,2.22,2.68a17.92,17.92,0,0,0-2.58,6.2l-3.45.32v6.72l3.45.32a18,18,0,0,0,2.58,6.2l-2.22,2.68,4.75,4.75,2.68-2.22a18,18,0,0,0,6.2,2.58l.33,3.45h6.71l.32-3.45a17.92,17.92,0,0,0,6.2-2.58l2.69,2.22,4.74-4.75-2.22-2.68a18,18,0,0,0,2.58-6.2Zm-21.13,5.73a9.09,9.09,0,1,1,9.09-9.09A9.08,9.08,0,0,1,88.77,187.32Z" style="fill:#e0e0e0"></path><path d="M383.75,270v10.19l5.26.5a27.27,27.27,0,0,0,3.91,9.42l-3.37,4.07,7.21,7.22,4.08-3.38a27.09,27.09,0,0,0,9.42,3.92l.49,5.25H421l.49-5.25a27.09,27.09,0,0,0,9.42-3.92l4.08,3.38,7.21-7.22-3.37-4.07a27.27,27.27,0,0,0,3.91-9.42l5.25-.5V270l-5.25-.5a27.27,27.27,0,0,0-3.91-9.42l3.37-4.07-7.21-7.22-4.08,3.38a27.28,27.28,0,0,0-9.42-3.92L421,243h-10.2l-.49,5.25a27.28,27.28,0,0,0-9.42,3.92l-4.08-3.38L389.55,256l3.37,4.07A27.08,27.08,0,0,0,389,269.5Zm32.1-8.71A13.81,13.81,0,1,1,402,275.1,13.81,13.81,0,0,1,415.85,261.29Z" style="fill:#e0e0e0"></path><path d="M342.42,241.21v8l4.11.39A21.43,21.43,0,0,0,349.6,257L347,260.16l5.65,5.65,3.19-2.64a21.57,21.57,0,0,0,7.39,3.07l.38,4.11h8l.39-4.11a21.43,21.43,0,0,0,7.38-3.07l3.2,2.64,5.65-5.65L385.53,257a21.05,21.05,0,0,0,3.07-7.38l4.12-.39v-8l-4.12-.39a21.05,21.05,0,0,0-3.07-7.38l2.65-3.19-5.65-5.66-3.2,2.65a21.24,21.24,0,0,0-7.38-3.07l-.39-4.12h-8l-.38,4.12a21.37,21.37,0,0,0-7.39,3.07l-3.19-2.65L347,230.25l2.64,3.19a21.43,21.43,0,0,0-3.07,7.38Zm25.15-6.82a10.82,10.82,0,1,1-10.82,10.81A10.82,10.82,0,0,1,367.57,234.39Z" style="fill:#e0e0e0"></path><path d="M386.75,217.52v6.71l3.46.33a18,18,0,0,0,2.58,6.2l-2.22,2.68,4.75,4.75L398,236a17.72,17.72,0,0,0,6.2,2.57l.32,3.46h6.72l.32-3.46a17.79,17.79,0,0,0,6.2-2.57l2.68,2.22,4.75-4.75L423,230.76a18,18,0,0,0,2.58-6.2l3.45-.33v-6.71l-3.45-.33A18,18,0,0,0,423,211l2.22-2.68-4.75-4.75-2.68,2.23a17.81,17.81,0,0,0-6.2-2.58l-.32-3.46h-6.72l-.32,3.46a17.73,17.73,0,0,0-6.2,2.58l-2.68-2.23-4.75,4.75,2.22,2.68a18,18,0,0,0-2.58,6.2Zm21.13-5.73a9.09,9.09,0,1,1-9.09,9.09A9.09,9.09,0,0,1,407.88,211.79Z" style="fill:#e0e0e0"></path><path d="M218,318.73h16.71A2.32,2.32,0,0,1,237,321v61.52h25.25V321a2.32,2.32,0,0,1,2.32-2.31h16.7a2.33,2.33,0,0,0,1.64-4l-31.64-31.64a2.31,2.31,0,0,0-3.29,0l-31.66,31.64A2.34,2.34,0,0,0,218,318.73Z" style="fill:#e0e0e0"></path><path d="M61.9,267.1H78.6a2.32,2.32,0,0,1,2.33,2.31V382.56h25.26V269.41a2.32,2.32,0,0,1,2.31-2.31h16.7a2.33,2.33,0,0,0,1.65-4L95.2,231.47a2.32,2.32,0,0,0-3.29,0L60.25,263.12A2.34,2.34,0,0,0,61.9,267.1Z" style="fill:#e0e0e0"></path><path d="M309.1,338.61h11.45a1.59,1.59,0,0,1,1.6,1.59v42.36h17.32V340.2a1.59,1.59,0,0,1,1.59-1.59h11.45a1.6,1.6,0,0,0,1.13-2.73l-21.7-21.7a1.59,1.59,0,0,0-2.26,0L308,335.88A1.6,1.6,0,0,0,309.1,338.61Z" style="fill:#e0e0e0"></path></g><g id="freepik--Shadow--inject-32"><ellipse id="freepik--path--inject-32" cx="250" cy="416.24" rx="193.89" ry="11.32" style="fill:#f5f5f5"></ellipse></g><g id="freepik--Tools--inject-32"><polygon points="286.88 386.58 296.75 399.27 300.3 398.73 289.88 386.58 286.88 386.58" style="fill:#263238"></polygon><polygon points="286.88 386.58 296.75 399.27 300.3 398.73 289.88 386.58 286.88 386.58" style="opacity:0.30000000000000004;isolation:isolate"></polygon><polygon points="289.88 374.58 299.75 387.27 303.3 386.73 292.88 374.58 289.88 374.58" style="fill:#263238"></polygon><polygon points="289.88 374.58 299.75 387.27 303.3 386.73 292.88 374.58 289.88 374.58" style="opacity:0.30000000000000004;isolation:isolate"></polygon><polygon points="318.28 368.08 360.95 368.08 350.94 394.51 308.27 394.51 318.28 368.08" style="fill:#263238"></polygon><polygon points="318.28 368.08 360.95 368.08 350.94 394.51 308.27 394.51 318.28 368.08" style="opacity:0.30000000000000004;isolation:isolate"></polygon><rect x="285.15" y="384.51" width="67.79" height="3.41" transform="translate(638.1 772.42) rotate(180)" style="fill:#263238"></rect><rect x="326.92" y="384.51" width="26.02" height="3.41" transform="translate(679.87 772.42) rotate(180)" style="opacity:0.2;isolation:isolate"></rect><rect x="289.15" y="374.5" width="67.79" height="3.41" transform="translate(646.1 752.41) rotate(180)" style="fill:#263238"></rect><rect x="330.92" y="374.5" width="26.02" height="3.41" transform="translate(687.87 752.41) rotate(180)" style="opacity:0.2;isolation:isolate"></rect><polygon points="360.88 368.26 363.25 371.01 354.25 394.58 350.73 394.58 360.88 368.26" style="fill:#263238"></polygon><path d="M268.06,382.08l-4.58,1.14a6.59,6.59,0,0,1,4.6-5.37,6.11,6.11,0,0,1,7.07,3.75,5.26,5.26,0,0,1,.31,3l27.62,16.62c3.23-2.72,7.06-.67,8.64,1.54l-4.56,1.12a2,2,0,0,0-1.45,2.41,2,2,0,0,0,2.43,1.45l4.58-1.14a6.57,6.57,0,0,1-4.6,5.36,6.15,6.15,0,0,1-7.17-3.59,4.84,4.84,0,0,1-.4-2.83l-27.61-16.62c-2.73,1.86-7,.51-8.56-1.7L269,386a2,2,0,0,0,1.47-2.45A2,2,0,0,0,268.06,382.08Z" style="fill:#263238"></path><path d="M268.06,382.08l-4.58,1.14a6.59,6.59,0,0,1,4.6-5.37,6.11,6.11,0,0,1,7.07,3.75,5.26,5.26,0,0,1,.31,3l27.62,16.62c3.23-2.72,7.06-.67,8.64,1.54l-4.56,1.12a2,2,0,0,0-1.45,2.41,2,2,0,0,0,2.43,1.45l4.58-1.14a6.57,6.57,0,0,1-4.6,5.36,6.15,6.15,0,0,1-7.17-3.59,4.84,4.84,0,0,1-.4-2.83l-27.61-16.62c-2.73,1.86-7,.51-8.56-1.7L269,386a2,2,0,0,0,1.47-2.45A2,2,0,0,0,268.06,382.08Z" style="fill:#fff;opacity:0.6000000000000001;isolation:isolate"></path><rect x="277.15" y="394.51" width="73.8" height="21.55" transform="translate(628.09 810.57) rotate(180)" style="fill:#263238"></rect><rect x="321.92" y="394.51" width="29.02" height="21.55" transform="translate(672.86 810.57) rotate(180)" style="opacity:0.2;isolation:isolate"></rect><path d="M376.86,410.6l3.33-3.34a6.57,6.57,0,0,1-1.16,7,6.11,6.11,0,0,1-8,.45,5.4,5.4,0,0,1-1.82-2.41l-32.22.05c-1.37,4-5.7,4.23-8.2,3.15l3.33-3.31a2,2,0,0,0,0-2.81,2,2,0,0,0-2.83,0L326,412.7a6.58,6.58,0,0,1,1.17-7,6.14,6.14,0,0,1,8-.63,4.8,4.8,0,0,1,1.81,2.22l32.23,0c1.37-3,5.7-4,8.2-3L374,407.72a2,2,0,0,0,0,2.86A2,2,0,0,0,376.86,410.6Z" style="fill:#263238"></path><path d="M376.86,410.6l3.33-3.34a6.57,6.57,0,0,1-1.16,7,6.11,6.11,0,0,1-8,.45,5.4,5.4,0,0,1-1.82-2.41l-32.22.05c-1.37,4-5.7,4.23-8.2,3.15l3.33-3.31a2,2,0,0,0,0-2.81,2,2,0,0,0-2.83,0L326,412.7a6.58,6.58,0,0,1,1.17-7,6.14,6.14,0,0,1,8-.63,4.8,4.8,0,0,1,1.81,2.22l32.23,0c1.37-3,5.7-4,8.2-3L374,407.72a2,2,0,0,0,0,2.86A2,2,0,0,0,376.86,410.6Z" style="fill:#fff;opacity:0.6000000000000001;isolation:isolate"></path></g><g id="freepik--Box--inject-32"><path d="M136.78,340.64,143,333.1a5.43,5.43,0,0,1,4.19-2h5.75a1.8,1.8,0,0,1,1.47,2.84l-4,5.66Z" style="fill:#FF9800"></path><path d="M136.78,340.64,143,333.1a5.43,5.43,0,0,1,4.19-2h5.75a1.8,1.8,0,0,1,1.47,2.84l-4,5.66Z" style="opacity:0.30000000000000004;isolation:isolate"></path><polygon points="71.11 339.63 64.11 316.64 130.97 316.64 136.78 340.64 71.11 339.63" style="fill:#FF9800"></polygon><path d="M64.11,316.64l2.45-3.17a6.76,6.76,0,0,1,5.36-2.63h57.13a2.53,2.53,0,0,1,2.48,3l-.56,2.76Z" style="fill:#FF9800"></path><polygon points="71.11 339.63 64.11 316.64 130.97 316.64 136.78 340.64 71.11 339.63" style="opacity:0.30000000000000004;isolation:isolate"></polygon><path d="M64.11,316.64l2.45-3.17a6.76,6.76,0,0,1,5.36-2.63h57.13a2.53,2.53,0,0,1,2.48,3l-.56,2.76Z" style="opacity:0.2;isolation:isolate"></path><path d="M98.76,281.62h2.78a.66.66,0,0,1,.66.66v3.43a0,0,0,0,1,0,0H98.1a0,0,0,0,1,0,0v-3.43A.66.66,0,0,1,98.76,281.62Z" transform="translate(62.85 -14.84) rotate(12.32)" style="fill:#FF9800"></path><path d="M106.43,283.29h2.78a.66.66,0,0,1,.66.66v3.43a0,0,0,0,1,0,0h-4.09a0,0,0,0,1,0,0V284a.66.66,0,0,1,.66-.66Z" transform="translate(63.39 -16.44) rotate(12.33)" style="fill:#FF9800"></path><path d="M114.1,285h2.78a.66.66,0,0,1,.66.66v3.43a0,0,0,0,1,0,0h-4.09a0,0,0,0,1,0,0v-3.43A.66.66,0,0,1,114.1,285Z" transform="translate(63.93 -18.04) rotate(12.32)" style="fill:#FF9800"></path><path d="M121.77,286.65h2.78a.66.66,0,0,1,.66.66v3.43a0,0,0,0,1,0,0h-4.09a0,0,0,0,1,0,0V287.3A.66.66,0,0,1,121.77,286.65Z" transform="translate(64.46 -19.64) rotate(12.32)" style="fill:#FF9800"></path><path d="M129.44,288.32h2.78a.66.66,0,0,1,.66.66v3.43a0,0,0,0,1,0,0h-4.09a0,0,0,0,1,0,0V289A.66.66,0,0,1,129.44,288.32Z" transform="translate(64.99 -21.23) rotate(12.32)" style="fill:#FF9800"></path><path d="M137.11,290h2.78a.66.66,0,0,1,.66.66v3.43a0,0,0,0,1,0,0h-4.09a0,0,0,0,1,0,0v-3.43A.66.66,0,0,1,137.11,290Z" transform="translate(65.52 -22.83) rotate(12.32)" style="fill:#FF9800"></path><path d="M125.8,341.78h2.78a.66.66,0,0,1,.66.66v3.43a0,0,0,0,1,0,0h-4.09a0,0,0,0,1,0,0v-3.43A.66.66,0,0,1,125.8,341.78Z" transform="translate(178.07 706.87) rotate(-167.68)" style="fill:#FF9800"></path><path d="M118.13,340.1h2.78a.66.66,0,0,1,.66.66v3.43a0,0,0,0,1,0,0h-4.09a0,0,0,0,1,0,0v-3.43A.66.66,0,0,1,118.13,340.1Z" transform="translate(163.25 701.92) rotate(-167.67)" style="fill:#FF9800"></path><path d="M110.46,338.43h2.78a.66.66,0,0,1,.66.66v3.43a0,0,0,0,1,0,0H109.8a0,0,0,0,1,0,0v-3.43a.66.66,0,0,1,.66-.66Z" transform="translate(148.44 696.97) rotate(-167.67)" style="fill:#FF9800"></path><path d="M102.79,336.75h2.78a.66.66,0,0,1,.66.66v3.43a0,0,0,0,1,0,0h-4.09a0,0,0,0,1,0,0v-3.43A.66.66,0,0,1,102.79,336.75Z" transform="translate(133.64 692.02) rotate(-167.67)" style="fill:#FF9800"></path><path d="M95.12,335.07h2.78a.66.66,0,0,1,.66.66v3.43a0,0,0,0,1,0,0H94.46a0,0,0,0,1,0,0v-3.43A.66.66,0,0,1,95.12,335.07Z" transform="translate(118.84 687.07) rotate(-167.68)" style="fill:#FF9800"></path><path d="M87.45,333.4h2.78a.66.66,0,0,1,.66.66v3.43a0,0,0,0,1,0,0H86.79a0,0,0,0,1,0,0v-3.43A.66.66,0,0,1,87.45,333.4Z" transform="translate(104.03 682.12) rotate(-167.68)" style="fill:#FF9800"></path><g style="opacity:0.4"><path d="M98.76,281.62h2.78a.66.66,0,0,1,.66.66v3.43a0,0,0,0,1,0,0H98.1a0,0,0,0,1,0,0v-3.43A.66.66,0,0,1,98.76,281.62Z" transform="translate(62.85 -14.84) rotate(12.32)" style="fill:#fff"></path><path d="M106.43,283.29h2.78a.66.66,0,0,1,.66.66v3.43a0,0,0,0,1,0,0h-4.09a0,0,0,0,1,0,0V284a.66.66,0,0,1,.66-.66Z" transform="translate(63.39 -16.44) rotate(12.33)" style="fill:#fff"></path><path d="M114.1,285h2.78a.66.66,0,0,1,.66.66v3.43a0,0,0,0,1,0,0h-4.09a0,0,0,0,1,0,0v-3.43A.66.66,0,0,1,114.1,285Z" transform="translate(63.93 -18.04) rotate(12.32)" style="fill:#fff"></path><path d="M121.77,286.65h2.78a.66.66,0,0,1,.66.66v3.43a0,0,0,0,1,0,0h-4.09a0,0,0,0,1,0,0V287.3A.66.66,0,0,1,121.77,286.65Z" transform="translate(64.46 -19.64) rotate(12.32)" style="fill:#fff"></path><path d="M129.44,288.32h2.78a.66.66,0,0,1,.66.66v3.43a0,0,0,0,1,0,0h-4.09a0,0,0,0,1,0,0V289A.66.66,0,0,1,129.44,288.32Z" transform="translate(64.99 -21.23) rotate(12.32)" style="fill:#fff"></path><path d="M137.11,290h2.78a.66.66,0,0,1,.66.66v3.43a0,0,0,0,1,0,0h-4.09a0,0,0,0,1,0,0v-3.43A.66.66,0,0,1,137.11,290Z" transform="translate(65.52 -22.83) rotate(12.32)" style="fill:#fff"></path><path d="M125.8,341.78h2.78a.66.66,0,0,1,.66.66v3.43a0,0,0,0,1,0,0h-4.09a0,0,0,0,1,0,0v-3.43A.66.66,0,0,1,125.8,341.78Z" transform="translate(178.07 706.87) rotate(-167.68)" style="fill:#fff"></path><path d="M118.13,340.1h2.78a.66.66,0,0,1,.66.66v3.43a0,0,0,0,1,0,0h-4.09a0,0,0,0,1,0,0v-3.43A.66.66,0,0,1,118.13,340.1Z" transform="translate(163.25 701.92) rotate(-167.67)" style="fill:#fff"></path><path d="M110.46,338.43h2.78a.66.66,0,0,1,.66.66v3.43a0,0,0,0,1,0,0H109.8a0,0,0,0,1,0,0v-3.43a.66.66,0,0,1,.66-.66Z" transform="translate(148.44 696.97) rotate(-167.67)" style="fill:#fff"></path><path d="M102.79,336.75h2.78a.66.66,0,0,1,.66.66v3.43a0,0,0,0,1,0,0h-4.09a0,0,0,0,1,0,0v-3.43A.66.66,0,0,1,102.79,336.75Z" transform="translate(133.64 692.02) rotate(-167.67)" style="fill:#fff"></path><path d="M95.12,335.07h2.78a.66.66,0,0,1,.66.66v3.43a0,0,0,0,1,0,0H94.46a0,0,0,0,1,0,0v-3.43A.66.66,0,0,1,95.12,335.07Z" transform="translate(118.84 687.07) rotate(-167.68)" style="fill:#fff"></path><path d="M87.45,333.4h2.78a.66.66,0,0,1,.66.66v3.43a0,0,0,0,1,0,0H86.79a0,0,0,0,1,0,0v-3.43A.66.66,0,0,1,87.45,333.4Z" transform="translate(104.03 682.12) rotate(-167.68)" style="fill:#fff"></path></g><rect x="85.4" y="288.15" width="58.81" height="51.69" rx="3.56" transform="translate(69.67 -17.27) rotate(12.32)" style="fill:#263238"></rect><path d="M88.93,334.79l-4.88-1.06a3.56,3.56,0,0,1-2.72-4.24L90.84,286a3.55,3.55,0,0,1,4.24-2.72l4.88,1.06A3.55,3.55,0,0,0,95.73,287l-9.52,43.55A3.55,3.55,0,0,0,88.93,334.79Z" style="opacity:0.4;isolation:isolate"></path><path d="M116.75,304.65l-7.16,18-3.78-.82,1-19.31,2.88.63-1.07,15.1L113.93,304Z" style="fill:#FF9800"></path><path d="M116.51,316.72l-1.59-.35.21-1a2.4,2.4,0,0,0,2.23-.58l1,.22-2,9.26-1.4-.3Z" style="fill:#FF9800"></path><path d="M118.22,323.25l1.41.31-.31,1.39-1.4-.31Z" style="fill:#FF9800"></path><path d="M121.23,323.14l.06-.27,1.38.16-.07.3c-.16.74.09,1.11.61,1.22a.8.8,0,0,0,1-.72l.47-2.14a.72.72,0,0,0-.57-1,.86.86,0,0,0-1.07.72l0,.16-1.35-.3,1.16-5.29,4,.87-.29,1.33-2.66-.58-.5,2.3a1.57,1.57,0,0,1,1.48-.38,1.7,1.7,0,0,1,1.28,2.23l-.51,2.33a2.26,2.26,0,1,1-4.42-1Z" style="fill:#FF9800"></path><path d="M80.74,324.9h2.78a.66.66,0,0,1,.66.66V329a0,0,0,0,1,0,0H80.08a0,0,0,0,1,0,0v-3.43A.66.66,0,0,1,80.74,324.9Z" transform="translate(-254.81 337.4) rotate(-77.68)" style="fill:#FF9800"></path><path d="M82.41,317.23h2.78a.66.66,0,0,1,.66.66v3.43a0,0,0,0,1,0,0H81.76a0,0,0,0,1,0,0v-3.43a.66.66,0,0,1,.66-.66Z" transform="translate(-246 332.99) rotate(-77.67)" style="fill:#FF9800"></path><path d="M84.09,309.56h2.78a.66.66,0,0,1,.66.66v3.43a0,0,0,0,1,0,0H83.43a0,0,0,0,1,0,0v-3.43A.66.66,0,0,1,84.09,309.56Z" transform="translate(-237.19 328.59) rotate(-77.67)" style="fill:#FF9800"></path><path d="M85.76,301.89h2.78a.66.66,0,0,1,.66.66V306a0,0,0,0,1,0,0H85.11a0,0,0,0,1,0,0v-3.43A.66.66,0,0,1,85.76,301.89Z" transform="translate(-228.38 324.2) rotate(-77.67)" style="fill:#FF9800"></path><path d="M87.44,294.22h2.78a.66.66,0,0,1,.66.66v3.43a0,0,0,0,1,0,0H86.78a0,0,0,0,1,0,0v-3.43A.66.66,0,0,1,87.44,294.22Z" transform="translate(-219.56 319.81) rotate(-77.68)" style="fill:#FF9800"></path><path d="M89.12,286.54h2.78a.66.66,0,0,1,.66.66v3.43a0,0,0,0,1,0,0H88.46a0,0,0,0,1,0,0V287.2A.66.66,0,0,1,89.12,286.54Z" transform="translate(-210.75 315.41) rotate(-77.68)" style="fill:#FF9800"></path><g style="opacity:0.4"><path d="M80.74,324.9h2.78a.66.66,0,0,1,.66.66V329a0,0,0,0,1,0,0H80.08a0,0,0,0,1,0,0v-3.43A.66.66,0,0,1,80.74,324.9Z" transform="translate(-254.81 337.4) rotate(-77.68)" style="fill:#fff"></path><path d="M82.41,317.23h2.78a.66.66,0,0,1,.66.66v3.43a0,0,0,0,1,0,0H81.76a0,0,0,0,1,0,0v-3.43a.66.66,0,0,1,.66-.66Z" transform="translate(-246 332.99) rotate(-77.67)" style="fill:#fff"></path><path d="M84.09,309.56h2.78a.66.66,0,0,1,.66.66v3.43a0,0,0,0,1,0,0H83.43a0,0,0,0,1,0,0v-3.43A.66.66,0,0,1,84.09,309.56Z" transform="translate(-237.19 328.59) rotate(-77.67)" style="fill:#fff"></path><path d="M85.76,301.89h2.78a.66.66,0,0,1,.66.66V306a0,0,0,0,1,0,0H85.11a0,0,0,0,1,0,0v-3.43A.66.66,0,0,1,85.76,301.89Z" transform="translate(-228.38 324.2) rotate(-77.67)" style="fill:#fff"></path><path d="M87.44,294.22h2.78a.66.66,0,0,1,.66.66v3.43a0,0,0,0,1,0,0H86.78a0,0,0,0,1,0,0v-3.43A.66.66,0,0,1,87.44,294.22Z" transform="translate(-219.56 319.81) rotate(-77.68)" style="fill:#fff"></path><path d="M89.12,286.54h2.78a.66.66,0,0,1,.66.66v3.43a0,0,0,0,1,0,0H88.46a0,0,0,0,1,0,0V287.2A.66.66,0,0,1,89.12,286.54Z" transform="translate(-210.75 315.41) rotate(-77.68)" style="fill:#fff"></path></g><rect x="71.11" y="339.63" width="79.32" height="76.43" style="fill:#FF9800"></rect><rect x="71.11" y="339.63" width="13.31" height="76.43" style="opacity:0.2;isolation:isolate"></rect><path d="M84.42,339.63l-7.27-8.91a5.7,5.7,0,0,0-4.39-2.08H66.91a2.22,2.22,0,0,0-1.73,3.62l5.93,7.37Z" style="fill:#FF9800"></path></g><g id="freepik--Character--inject-32"><g id="freepik--group--inject-32"><path d="M273.73,200.81c-5.21,2.58-16.09,7.15-26.31,6.42a24.35,24.35,0,0,1-7.31-1.6c-3.35-1.33-5.48-4.71-6.75-9.19-4.63-16.19,1.85-46.75,1.85-46.75,9.42,1.54,18.52,38.27,22.08,40.28S276,191.28,276,191.28l.5,4.49A5,5,0,0,1,273.73,200.81Z" style="fill:#FF9800"></path><path d="M247.42,207.23a24.35,24.35,0,0,1-7.31-1.6c-3.35-1.33-5.48-4.71-6.75-9.19.36-2.42.79-4.13.79-4.13l17.32-5S252.19,199.84,247.42,207.23Z" style="opacity:0.30000000000000004;isolation:isolate"></path><polygon points="233.84 408.38 242.21 409.26 243.78 391.21 235.42 390.33 233.84 408.38" style="fill:#b97964"></polygon><polygon points="192.09 407.76 200.2 407.76 200.87 388.98 192.75 388.98 192.09 407.76" style="fill:#b97964"></polygon><path d="M201.33,406.83h-9.85a.72.72,0,0,0-.7.55l-1.59,7.22a1.19,1.19,0,0,0,.92,1.42,1.09,1.09,0,0,0,.26,0c3.19-.05,5.51-.25,9.51-.25,2.47,0,9.9.26,13.31.26s3.84-3.36,2.45-3.67c-6.25-1.37-10.95-3.25-12.95-5.05A2,2,0,0,0,201.33,406.83Z" style="fill:#263238"></path><path d="M201.88,408a.19.19,0,0,1-.14-.16.16.16,0,0,1,.09-.19c.29-.19,2.91-1.79,3.81-1.33a.6.6,0,0,1,.33.54,1.13,1.13,0,0,1-.41,1,2.42,2.42,0,0,1-1.55.41A9.6,9.6,0,0,1,201.88,408Zm.56-.27a4,4,0,0,0,2.89-.14.78.78,0,0,0,.25-.69c0-.16-.07-.23-.12-.23a.42.42,0,0,0-.25-.05A8,8,0,0,0,202.44,407.68Z" style="fill:#FF9800"></path><path d="M201.83,408a.2.2,0,0,1-.09-.17c0-.12.2-2.45,1.14-3.21a1,1,0,0,1,.82-.25.63.63,0,0,1,.62.51c.16.85-1.46,2.64-2.29,3.09h-.1A.17.17,0,0,1,201.83,408Zm1.3-3.15a4.56,4.56,0,0,0-1,2.53c.84-.63,1.87-2,1.76-2.5,0-.05,0-.2-.27-.2h-.1A.63.63,0,0,0,203.13,404.84Z" style="fill:#FF9800"></path><path d="M243.1,406.57h-9.85a.71.71,0,0,0-.69.56l-1.6,7.22a1.18,1.18,0,0,0,.92,1.41l.26,0c3.19-.05,5.51-.25,9.51-.25,2.47,0,9.91.26,13.31.26s3.85-3.36,2.45-3.67c-6.25-1.36-11-3.25-13-5.05A2,2,0,0,0,243.1,406.57Z" style="fill:#263238"></path><path d="M243.65,407.69a.19.19,0,0,1-.14-.16.2.2,0,0,1,.09-.19c.29-.18,2.91-1.79,3.81-1.33a.57.57,0,0,1,.33.54,1.15,1.15,0,0,1-.4,1,2.41,2.41,0,0,1-1.56.41A9.6,9.6,0,0,1,243.65,407.69Zm.56-.27a4,4,0,0,0,2.89-.14.81.81,0,0,0,.26-.69c0-.16-.07-.23-.13-.23a.4.4,0,0,0-.24-.05A8,8,0,0,0,244.21,407.42Z" style="fill:#FF9800"></path><path d="M243.6,407.73a.19.19,0,0,1-.09-.17c0-.11.21-2.45,1.15-3.21a1,1,0,0,1,.81-.25.63.63,0,0,1,.62.51c.16.85-1.46,2.64-2.29,3.09h-.09A.2.2,0,0,1,243.6,407.73Zm1.3-3.15a4.59,4.59,0,0,0-1,2.54c.84-.63,1.87-2,1.77-2.51,0-.05,0-.2-.28-.2h-.09A.66.66,0,0,0,244.9,404.58Z" style="fill:#FF9800"></path><polygon points="235.42 390.33 243.78 391.21 242.97 400.52 234.6 399.64 235.42 390.33" style="opacity:0.2;isolation:isolate"></polygon><polygon points="192.75 388.99 200.87 388.99 200.52 398.68 192.4 398.68 192.75 388.99" style="opacity:0.2;isolation:isolate"></polygon><path d="M196.1,224.24h43c4.09,22.34,16.9,101.41,7.71,171.86l-14.57-1.81s1.35-93.52-11.52-128.1c-1.48,18.5-3.23,38.19-4.76,48.67C212.26,340.65,204.24,397,204.24,397H189.41s3-53.94,4.44-79.28C195.38,290.2,196,229.89,196.1,224.24Z" style="fill:#263238"></path><path d="M220.77,266.19a115.2,115.2,0,0,1,4.8,18.62c1.21-16.47-3.61-33.93-3.61-33.93Z" style="opacity:0.2;isolation:isolate"></path><polygon points="248.51 399.5 230.48 396.81 231.03 391.82 249.79 394.28 248.51 399.5" style="fill:#FF9800"></polygon><polygon points="248.51 399.5 230.48 396.81 231.03 391.82 249.79 394.28 248.51 399.5" style="fill:#fff;opacity:0.6000000000000001;isolation:isolate"></polygon><polygon points="206.03 397.12 188.53 397.12 188.53 391.89 206.69 391.55 206.03 397.12" style="fill:#FF9800"></polygon><polygon points="206.03 397.12 188.53 397.12 188.53 391.89 206.69 391.55 206.03 397.12" style="fill:#fff;opacity:0.6000000000000001;isolation:isolate"></polygon><polygon points="195.19 240.34 195.19 244.99 242.86 242.66 242.86 238.46 195.19 240.34" style="fill:#FF9800"></polygon><path d="M271.8,194s-.27,2.22,3.29,4.16h4.55a7.17,7.17,0,0,0,3,1c1.19-.05,6.89-4.26,7.92-5.17s-1.78-11.09-1.78-11.09Z" style="fill:#b97964"></path><path d="M235.21,149.69s-27.38-1.33-47.77,3.82c0,0,6.59,59,6.63,86.16a2.07,2.07,0,0,0,2.16,2.08l46-1.6a2.08,2.08,0,0,0,2-2.16C243.82,226.78,241.55,173.44,235.21,149.69Z" style="fill:#FF9800"></path><path d="M244.23,238a2.08,2.08,0,0,1-2,2.16l-46,1.6a2.07,2.07,0,0,1-2.16-2.08c0-5.52-.29-12.37-.73-19.77-.21-3.34-.44-6.79-.7-10.29-.29-4.1-.62-8.26-1-12.36-.78-9.36-1.63-18.43-2.37-25.86-1.06-10.61-1.87-17.88-1.87-17.88,20.39-5.15,47.77-3.82,47.77-3.82C241.55,173.44,243.82,226.78,244.23,238Z" style="opacity:0.2;isolation:isolate"></path><path d="M203,150.75c4,3.59,13.63,2.26,13.63,2.26s6-1.66,4.77-3.54c-3.56-.59-5.28-2.25-6-4.38a10.43,10.43,0,0,1-.36-4.06c.06-.75.17-1.52.3-2.27l-12-8.86C205,135.75,206.87,146.51,203,150.75Z" style="fill:#b97964"></path><path d="M206.15,135.53c.48,7.18,6.38,9.16,9.26,9.56a10.43,10.43,0,0,1-.36-4.06Z" style="opacity:0.2;isolation:isolate"></path><path d="M226.8,112.84s1.7,11.17-4.23,15.47-5.93-16.5-5.93-16.5Z" style="fill:#263238"></path><path d="M205.35,137.19A10.13,10.13,0,0,0,217,141.12a11.3,11.3,0,0,0,6.45-5.25,11.89,11.89,0,0,0,.54-1.07c2.91-6.83,3.84-18.77-3.38-23.25a11,11,0,0,0-16.79,8.28C202.92,127.82,202,132.47,205.35,137.19Z" style="fill:#b97964"></path><path d="M215.45,124.1c-.15.63.14,1.22.56,1.29s.86-.39,1-1-.15-1.23-.57-1.3S215.57,123.45,215.45,124.1Z" style="fill:#263238"></path><path d="M222.74,125.34c-.16.64.14,1.23.56,1.3s.85-.4,1-1-.15-1.23-.57-1.3S222.84,124.73,222.74,125.34Z" style="fill:#263238"></path><path d="M220.37,125.27a23.61,23.61,0,0,0,2.13,6,3.82,3.82,0,0,1-3.19.05Z" style="fill:#a24e3f"></path><path d="M213.59,121.35a.37.37,0,0,0,.39-.08,3.12,3.12,0,0,1,2.64-.86.37.37,0,0,0,.46-.27.38.38,0,0,0-.28-.47h0a3.82,3.82,0,0,0-3.34,1,.38.38,0,0,0,0,.54h0A.4.4,0,0,0,213.59,121.35Z" style="fill:#263238"></path><path d="M217.69,134.52h0a5.93,5.93,0,0,1-4.78-2.6.21.21,0,0,1,.08-.28.2.2,0,0,1,.27.06h0a5.63,5.63,0,0,0,4.44,2.39.2.2,0,0,1,.2.2v0a.2.2,0,0,1-.2.2Z" style="fill:#263238"></path><path d="M226.3,123.37a.33.33,0,0,0,.22,0,.38.38,0,0,0,.26-.47h0a3.83,3.83,0,0,0-2.36-2.59.39.39,0,0,0-.48.25h0a.39.39,0,0,0,.26.47h0a3.11,3.11,0,0,1,1.84,2.08A.37.37,0,0,0,226.3,123.37Z" style="fill:#263238"></path><path d="M211.31,111v3.57a2.62,2.62,0,0,0-1.72,3.13c.77,3.1-1.47,7.48-4,9,0,0,.09-1.29-1-1.12s-1.63,6.88.09,10.32c0,0-2.84-3.27-3.78-10.49-.88-6.68-.43-12.1,1.21-14.44Z" style="fill:#263238"></path><path d="M199.24,125.73a7.68,7.68,0,0,0,3.67,4.55c2.36,1.27,4.13-.7,4-3.24-.17-2.25-1.57-5.7-4.18-5.89S198.57,123.34,199.24,125.73Z" style="fill:#b97964"></path><path d="M211.31,114.52s2.31,2.29,4.56.61c0,0,2.55,2.12,4.62.62a4.71,4.71,0,0,0,3,2.15,1.62,1.62,0,0,0,1.87-1.69s2.95,1.69,4,.9-.6-4-.6-4,1.39-.74.5-3.29-5-2-5-2,.16-2.37-2.71-4.84a2.78,2.78,0,0,0-4.57.59s-2.78-3.76-6.23-3.26-3,2.86-3,2.86-4-2.47-5.74,0,0,3.66,0,3.66-4,1.33-3.76,4,2.23,2.3,2.23,2.3-1.14,1.29,1.43,2.38,5-1.59,5-1.59a1.77,1.77,0,0,0,.85,2.58C209.59,117.65,211.31,114.52,211.31,114.52Z" style="fill:#263238"></path><path d="M216.64,153s-14-9.49-18.41-10-3.65,5-3.65,5-3.43,0-2.11,4.22,20.28,6.55,27.28,4.46,11.17-6,10-9.72-4.4-.53-4.4-.53-1.88-3.49-4.59-2.68S216.64,153,216.64,153Z" style="fill:#FF9800"></path><path d="M215.56,179.39a.51.51,0,0,1-.46-.3c-1.56-3.6-.91-7.35-.28-11,.7-4,1.35-7.69-.68-11.19a.5.5,0,1,1,.86-.5c2.22,3.82,1.5,7.9.81,11.86-.64,3.64-1.24,7.08.21,10.4a.51.51,0,0,1-.26.66A.79.79,0,0,1,215.56,179.39Z" style="fill:#fff"></path><path d="M225.31,177.31a.63.63,0,0,1-.19,0,.51.51,0,0,1-.28-.65c0-.06,2.43-6.19.83-12.16a17.9,17.9,0,0,0-5.08-8.83.5.5,0,0,1,.63-.78,18.68,18.68,0,0,1,5.41,9.35c1.69,6.3-.75,12.53-.86,12.79A.48.48,0,0,1,225.31,177.31Z" style="fill:#fff"></path><path d="M242,146.1h2.78a.66.66,0,0,1,.66.66v3.43a0,0,0,0,1,0,0h-4.09a0,0,0,0,1,0,0v-3.43A.66.66,0,0,1,242,146.1Z" transform="translate(-26.51 56.81) rotate(-12.63)" style="fill:#FF9800"></path><path d="M249.61,144.38h2.78a.66.66,0,0,1,.66.66v3.43a0,0,0,0,1,0,0H249a0,0,0,0,1,0,0V145A.66.66,0,0,1,249.61,144.38Z" transform="translate(-25.95 58.44) rotate(-12.63)" style="fill:#FF9800"></path><path d="M257.27,142.66h2.78a.66.66,0,0,1,.66.66v3.43a0,0,0,0,1,0,0h-4.09a0,0,0,0,1,0,0v-3.43A.66.66,0,0,1,257.27,142.66Z" transform="translate(-25.39 60.08) rotate(-12.63)" style="fill:#FF9800"></path><path d="M264.94,140.95h2.78a.66.66,0,0,1,.66.66V145a0,0,0,0,1,0,0h-4.09a0,0,0,0,1,0,0v-3.43A.66.66,0,0,1,264.94,140.95Z" transform="translate(-24.83 61.71) rotate(-12.63)" style="fill:#FF9800"></path><path d="M272.6,139.23h2.78a.66.66,0,0,1,.66.66v3.43a0,0,0,0,1,0,0h-4.09a0,0,0,0,1,0,0v-3.43a.66.66,0,0,1,.66-.66Z" transform="translate(-24.27 63.34) rotate(-12.63)" style="fill:#FF9800"></path><path d="M280.26,137.51H283a.66.66,0,0,1,.66.66v3.43a0,0,0,0,1,0,0H279.6a0,0,0,0,1,0,0v-3.43a.66.66,0,0,1,.66-.66Z" transform="translate(-23.7 64.98) rotate(-12.63)" style="fill:#FF9800"></path><path d="M291.85,189.23h2.78a.66.66,0,0,1,.66.66v3.43a0,0,0,0,1,0,0h-4.09a0,0,0,0,1,0,0v-3.43a.66.66,0,0,1,.66-.66Z" transform="translate(621.21 313.78) rotate(167.37)" style="fill:#FF9800"></path><path d="M284.19,190.95H287a.66.66,0,0,1,.66.66V195a0,0,0,0,1,0,0h-4.09a0,0,0,0,1,0,0V191.6A.66.66,0,0,1,284.19,190.95Z" transform="translate(606.45 318.85) rotate(167.37)" style="fill:#FF9800"></path><path d="M276.53,192.66h2.78a.66.66,0,0,1,.66.66v3.43a0,0,0,0,1,0,0h-4.09a0,0,0,0,1,0,0v-3.43a.66.66,0,0,1,.66-.66Z" transform="translate(591.69 323.92) rotate(167.37)" style="fill:#FF9800"></path><path d="M268.87,194.38h2.78a.66.66,0,0,1,.66.66v3.43a0,0,0,0,1,0,0h-4.09a0,0,0,0,1,0,0V195a.66.66,0,0,1,.66-.66Z" transform="translate(576.93 328.99) rotate(167.37)" style="fill:#FF9800"></path><path d="M261.2,196.1H264a.66.66,0,0,1,.66.66v3.43a0,0,0,0,1,0,0h-4.09a0,0,0,0,1,0,0v-3.43A.66.66,0,0,1,261.2,196.1Z" transform="translate(562.16 334.06) rotate(167.37)" style="fill:#FF9800"></path><path d="M253.54,197.82h2.78a.66.66,0,0,1,.66.66v3.43a0,0,0,0,1,0,0h-4.09a0,0,0,0,1,0,0v-3.43A.66.66,0,0,1,253.54,197.82Z" transform="translate(547.4 339.13) rotate(167.37)" style="fill:#FF9800"></path><g style="opacity:0.4;isolation:isolate"><path d="M242,146.1h2.78a.66.66,0,0,1,.66.66v3.43a0,0,0,0,1,0,0h-4.09a0,0,0,0,1,0,0v-3.43A.66.66,0,0,1,242,146.1Z" transform="translate(-26.51 56.81) rotate(-12.63)"></path><path d="M249.61,144.38h2.78a.66.66,0,0,1,.66.66v3.43a0,0,0,0,1,0,0H249a0,0,0,0,1,0,0V145A.66.66,0,0,1,249.61,144.38Z" transform="translate(-25.95 58.44) rotate(-12.63)"></path><path d="M257.27,142.66h2.78a.66.66,0,0,1,.66.66v3.43a0,0,0,0,1,0,0h-4.09a0,0,0,0,1,0,0v-3.43A.66.66,0,0,1,257.27,142.66Z" transform="translate(-25.39 60.08) rotate(-12.63)"></path><path d="M264.94,140.95h2.78a.66.66,0,0,1,.66.66V145a0,0,0,0,1,0,0h-4.09a0,0,0,0,1,0,0v-3.43A.66.66,0,0,1,264.94,140.95Z" transform="translate(-24.83 61.71) rotate(-12.63)"></path><path d="M272.6,139.23h2.78a.66.66,0,0,1,.66.66v3.43a0,0,0,0,1,0,0h-4.09a0,0,0,0,1,0,0v-3.43a.66.66,0,0,1,.66-.66Z" transform="translate(-24.27 63.34) rotate(-12.63)"></path><path d="M280.26,137.51H283a.66.66,0,0,1,.66.66v3.43a0,0,0,0,1,0,0H279.6a0,0,0,0,1,0,0v-3.43a.66.66,0,0,1,.66-.66Z" transform="translate(-23.7 64.98) rotate(-12.63)"></path><path d="M291.85,189.23h2.78a.66.66,0,0,1,.66.66v3.43a0,0,0,0,1,0,0h-4.09a0,0,0,0,1,0,0v-3.43a.66.66,0,0,1,.66-.66Z" transform="translate(621.21 313.78) rotate(167.37)"></path><path d="M284.19,190.95H287a.66.66,0,0,1,.66.66V195a0,0,0,0,1,0,0h-4.09a0,0,0,0,1,0,0V191.6A.66.66,0,0,1,284.19,190.95Z" transform="translate(606.45 318.85) rotate(167.37)"></path><path d="M276.53,192.66h2.78a.66.66,0,0,1,.66.66v3.43a0,0,0,0,1,0,0h-4.09a0,0,0,0,1,0,0v-3.43a.66.66,0,0,1,.66-.66Z" transform="translate(591.69 323.92) rotate(167.37)"></path><path d="M268.87,194.38h2.78a.66.66,0,0,1,.66.66v3.43a0,0,0,0,1,0,0h-4.09a0,0,0,0,1,0,0V195a.66.66,0,0,1,.66-.66Z" transform="translate(576.93 328.99) rotate(167.37)"></path><path d="M261.2,196.1H264a.66.66,0,0,1,.66.66v3.43a0,0,0,0,1,0,0h-4.09a0,0,0,0,1,0,0v-3.43A.66.66,0,0,1,261.2,196.1Z" transform="translate(562.16 334.06) rotate(167.37)"></path><path d="M253.54,197.82h2.78a.66.66,0,0,1,.66.66v3.43a0,0,0,0,1,0,0h-4.09a0,0,0,0,1,0,0v-3.43A.66.66,0,0,1,253.54,197.82Z" transform="translate(547.4 339.13) rotate(167.37)"></path></g><rect x="240.02" y="143.61" width="58.81" height="51.69" rx="3.56" transform="translate(-30.54 63.03) rotate(-12.63)" style="fill:#263238"></rect><path d="M254.74,199.23l-4.88,1.1a3.56,3.56,0,0,1-4.25-2.7l-9.75-43.49a3.56,3.56,0,0,1,2.7-4.25l4.88-1.1a3.57,3.57,0,0,0-2.7,4.26l9.75,43.49A3.55,3.55,0,0,0,254.74,199.23Z" style="opacity:0.4;isolation:isolate"></path><path d="M267.25,160.17l1.08,19.31-3.77.84L257.3,162.4l2.87-.65,5.41,14.15-1.15-15.1Z" style="fill:#fff"></path><path d="M273.64,177.1l2.78-.62.3,1.32-4.45,1-.27-1.22,1.32-3.72a4.81,4.81,0,0,0,.42-2.79c-.15-.65-.53-.94-1.08-.82s-.76.55-.62,1.2l.13.54-1.35.3-.1-.43a2.19,2.19,0,0,1,1.66-2.93,2.14,2.14,0,0,1,2.75,1.79,6.09,6.09,0,0,1-.5,3.59Z" style="fill:#fff"></path><path d="M277.7,176.12l1.4-.31.31,1.39-1.4.31Z" style="fill:#fff"></path><path d="M280.42,174.77l-1.13-5.06a2.3,2.3,0,0,1,4.49-1l1.13,5a2.3,2.3,0,0,1-4.49,1Zm3.09-.7-1.13-5a.87.87,0,1,0-1.69.38l1.13,5a.87.87,0,1,0,1.69-.38Z" style="fill:#fff"></path><path d="M243.87,192.94h2.78a.66.66,0,0,1,.66.66V197a0,0,0,0,1,0,0h-4.09a0,0,0,0,1,0,0V193.6A.66.66,0,0,1,243.87,192.94Z" transform="translate(108.64 476.96) rotate(-102.63)" style="fill:#FF9800"></path><path d="M242.16,185.28h2.78a.66.66,0,0,1,.66.66v3.43a0,0,0,0,1,0,0H241.5a0,0,0,0,1,0,0v-3.43A.66.66,0,0,1,242.16,185.28Z" transform="translate(114.02 465.95) rotate(-102.63)" style="fill:#FF9800"></path><path d="M240.44,177.62h2.78a.66.66,0,0,1,.66.66v3.43a0,0,0,0,1,0,0h-4.09a0,0,0,0,1,0,0v-3.43A.66.66,0,0,1,240.44,177.62Z" transform="translate(119.41 454.93) rotate(-102.63)" style="fill:#FF9800"></path><path d="M238.72,170h2.78a.66.66,0,0,1,.66.66V174a0,0,0,0,1,0,0h-4.09a0,0,0,0,1,0,0v-3.43A.66.66,0,0,1,238.72,170Z" transform="translate(124.79 443.92) rotate(-102.63)" style="fill:#FF9800"></path><path d="M237,162.3h2.78a.66.66,0,0,1,.66.66v3.43a0,0,0,0,1,0,0h-4.09a0,0,0,0,1,0,0V163A.66.66,0,0,1,237,162.3Z" transform="translate(130.17 432.91) rotate(-102.63)" style="fill:#FF9800"></path><path d="M235.29,154.63h2.78a.66.66,0,0,1,.66.66v3.43a0,0,0,0,1,0,0h-4.09a0,0,0,0,1,0,0v-3.43A.66.66,0,0,1,235.29,154.63Z" transform="translate(135.56 421.89) rotate(-102.63)" style="fill:#FF9800"></path><g style="opacity:0.4;isolation:isolate"><path d="M243.87,192.94h2.78a.66.66,0,0,1,.66.66V197a0,0,0,0,1,0,0h-4.09a0,0,0,0,1,0,0V193.6A.66.66,0,0,1,243.87,192.94Z" transform="translate(108.64 476.96) rotate(-102.63)"></path><path d="M242.16,185.28h2.78a.66.66,0,0,1,.66.66v3.43a0,0,0,0,1,0,0H241.5a0,0,0,0,1,0,0v-3.43A.66.66,0,0,1,242.16,185.28Z" transform="translate(114.02 465.95) rotate(-102.63)"></path><path d="M240.44,177.62h2.78a.66.66,0,0,1,.66.66v3.43a0,0,0,0,1,0,0h-4.09a0,0,0,0,1,0,0v-3.43A.66.66,0,0,1,240.44,177.62Z" transform="translate(119.41 454.93) rotate(-102.63)"></path><path d="M238.72,170h2.78a.66.66,0,0,1,.66.66V174a0,0,0,0,1,0,0h-4.09a0,0,0,0,1,0,0v-3.43A.66.66,0,0,1,238.72,170Z" transform="translate(124.79 443.92) rotate(-102.63)"></path><path d="M237,162.3h2.78a.66.66,0,0,1,.66.66v3.43a0,0,0,0,1,0,0h-4.09a0,0,0,0,1,0,0V163A.66.66,0,0,1,237,162.3Z" transform="translate(130.17 432.91) rotate(-102.63)"></path><path d="M235.29,154.63h2.78a.66.66,0,0,1,.66.66v3.43a0,0,0,0,1,0,0h-4.09a0,0,0,0,1,0,0v-3.43A.66.66,0,0,1,235.29,154.63Z" transform="translate(135.56 421.89) rotate(-102.63)"></path></g><path d="M211.31,212.27l2,1.07s-2.15,15.43-7.18,18.79l-2.06-2.37S211.21,220.49,211.31,212.27Z" style="fill:#FF9800"></path><path d="M236.67,211l-2.52,1.3s4.67,14.92,7.68,18.28l1.71-2.37S237.81,218.68,236.67,211Z" style="fill:#FF9800"></path><path d="M211.06,203.12s-6.45,13.08-17.72,16.78c-.21-3.34-.44-6.79-.7-10.29-.29-4.1-.62-8.26-1-12.36Z" style="opacity:0.2;isolation:isolate"></path><path d="M219.75,193l13-4.37s11.67-10.4,14.24-10.35,4.75,6.58,5.93,9.06-11,7.49-12.82,8.54-4.33,0-4.33,0l-13.28,5.8Z" style="fill:#b97964"></path><path d="M187.44,153.51c-12.11,1.61-5.84,47.24,2,56.2,6.52,7.49,30.31-3.51,38-7.33a3.12,3.12,0,0,0,1.55-3.76l-2.24-6.72a3.11,3.11,0,0,0-3.71-2c-6.45,1.65-22,5.33-23.9,3.12-2.39-2.79-5.55-16.5-5-25.21S187.44,153.51,187.44,153.51Z" style="fill:#FF9800"></path><polygon points="224.8 189.97 228.97 200.41 232.7 198.15 229.09 188.96 224.8 189.97" style="fill:#FF9800"></polygon><polygon points="224.8 189.97 228.97 200.41 232.7 198.15 229.09 188.96 224.8 189.97" style="opacity:0.30000000000000004;isolation:isolate"></polygon></g></g><g id="freepik--Screen--inject-32"><path d="M426.42,69v288a4.21,4.21,0,0,1-4.27,4.21h-134a3.71,3.71,0,0,1-2.68-1.08,3.84,3.84,0,0,1-1.14-2.79V68.62a3.39,3.39,0,0,1,3.27-3.53h38.06a2.68,2.68,0,0,1,2.45,1.71l1.57,3.88a2.68,2.68,0,0,0,2.45,1.69H378.7a2.65,2.65,0,0,0,2.45-1.66l1.57-3.9a2.69,2.69,0,0,1,2.45-1.72h37.51A3.84,3.84,0,0,1,426.42,69Z" style="fill:#FF9800;isolation:isolate"></path><path d="M432.42,69v288a4.21,4.21,0,0,1-4.27,4.21h-134a3.71,3.71,0,0,1-2.68-1.08,3.84,3.84,0,0,1-1.14-2.79V68.62a3.39,3.39,0,0,1,3.27-3.53h38.06a2.68,2.68,0,0,1,2.45,1.71l1.57,3.88a2.68,2.68,0,0,0,2.45,1.69H384.7a2.65,2.65,0,0,0,2.45-1.66l1.57-3.9a2.69,2.69,0,0,1,2.45-1.72h37.51A3.84,3.84,0,0,1,432.42,69Z" style="fill:#FF9800"></path><path d="M432.42,69v288a4.21,4.21,0,0,1-4.27,4.21h-134a3.71,3.71,0,0,1-2.68-1.08,3.84,3.84,0,0,1-1.14-2.79V68.62a3.39,3.39,0,0,1,3.27-3.53h38.06a2.68,2.68,0,0,1,2.45,1.71l1.57,3.88a2.68,2.68,0,0,0,2.45,1.69H384.7a2.65,2.65,0,0,0,2.45-1.66l1.57-3.9a2.69,2.69,0,0,1,2.45-1.72h37.51A3.84,3.84,0,0,1,432.42,69Z" style="fill:#fff;opacity:0.4"></path><rect x="307.99" y="74.05" width="1.98" height="2.64" transform="translate(617.95 150.73) rotate(180)" style="fill:#fff;opacity:0.6000000000000001;isolation:isolate"></rect><rect x="304.76" y="73.17" width="1.98" height="3.52" transform="translate(611.5 149.85) rotate(180)" style="fill:#fff;opacity:0.6000000000000001;isolation:isolate"></rect><rect x="301.53" y="72.28" width="1.98" height="4.4" transform="translate(605.04 148.97) rotate(180)" style="fill:#fff;opacity:0.6000000000000001;isolation:isolate"></rect><rect x="298.3" y="71.4" width="1.98" height="5.28" transform="translate(598.59 148.09) rotate(180)" style="fill:#fff;opacity:0.6000000000000001;isolation:isolate"></rect><rect x="413.1" y="73.08" width="1.17" height="2.64" style="fill:#fff;opacity:0.6000000000000001;isolation:isolate"></rect><rect x="415.08" y="72.12" width="9.35" height="4.57" transform="translate(839.51 148.81) rotate(180)" style="fill:#fff;opacity:0.6000000000000001;isolation:isolate"></rect><path d="M316.31,284.64h90.12a5.09,5.09,0,0,1,5.09,5.09h0a5.09,5.09,0,0,1-5.09,5.09H316.31a5.09,5.09,0,0,1-5.09-5.09h0A5.09,5.09,0,0,1,316.31,284.64Z" style="fill:#FF9800"></path><path d="M316.31,284.64h90.12a5.09,5.09,0,0,1,5.09,5.09h0a5.09,5.09,0,0,1-5.09,5.09H316.31a5.09,5.09,0,0,1-5.09-5.09h0A5.09,5.09,0,0,1,316.31,284.64Z" style="opacity:0.30000000000000004;isolation:isolate"></path><path d="M345.44,285.55a4.18,4.18,0,1,1,0,8.35H316.31a4.18,4.18,0,1,1,0-8.35Z" style="fill:#FF9800"></path><path d="M337.34,133.22a3.06,3.06,0,0,1-2.22-.91,3,3,0,0,1-.91-2.22V119.93h1.94v10.14a1.08,1.08,0,0,0,.33.8,1.13,1.13,0,0,0,.81.33,1.09,1.09,0,0,0,.8-.33,1.08,1.08,0,0,0,.33-.8V119.93h2.07v10.16a3,3,0,0,1-.92,2.23A3.09,3.09,0,0,1,337.34,133.22Z" style="fill:#FF9800"></path><path d="M345.38,119.93a3,3,0,0,1,2.3.91,3.18,3.18,0,0,1,.8,2.23V125a3.06,3.06,0,0,1-.91,2.23,3,3,0,0,1-2.19.92h-1.15v4.95h-2V119.93Zm1.18,3.17a1.08,1.08,0,0,0-1.13-1.15h-1.2v4.21h1.2a1.07,1.07,0,0,0,.8-.34,1.09,1.09,0,0,0,.33-.8Z" style="fill:#FF9800"></path><path d="M353,133.24a3.14,3.14,0,0,1-3.15-3.14v-7.17a3.14,3.14,0,1,1,6.28,0v1.5h-2.05v-1.54a1.07,1.07,0,0,0-.34-.81,1.14,1.14,0,0,0-1.94.81v7.19a1.08,1.08,0,0,0,.33.8,1.1,1.1,0,0,0,.81.33,1.13,1.13,0,0,0,.8-.32,1.07,1.07,0,0,0,.34-.81V127.5H353v-2h3.15v4.59a3,3,0,0,1-.92,2.23A3.05,3.05,0,0,1,353,133.24Z" style="fill:#FF9800"></path><path d="M361,119.93a3,3,0,0,1,2.43.91,3.3,3.3,0,0,1,.68,2.23V125a3.05,3.05,0,0,1-1.06,2.36l1.47,5.74h-2.14l-1.2-4.95h-1.32v4.95h-2V119.93Zm1.18,3.17A1,1,0,0,0,361,122h-1.19v4.21H361a1.05,1.05,0,0,0,.8-.34,1.09,1.09,0,0,0,.33-.8Z" style="fill:#FF9800"></path><path d="M368.63,130.05l-.48,3h-2.06l2.23-13.14h2.73l2.2,13.14h-2.08l-.47-3Zm1-7.11-.73,5.18h1.47Z" style="fill:#FF9800"></path><path d="M381.15,129.92a3.07,3.07,0,0,1-.92,2.23,3,3,0,0,1-2.2.92h-3.11V119.92H378a3,3,0,0,1,2.21.92,3.09,3.09,0,0,1,.91,2.22Zm-4.25,1.19h1.19a1.05,1.05,0,0,0,.8-.34,1.13,1.13,0,0,0,.33-.8v-6.88a1.14,1.14,0,0,0-1.13-1.15H376.9Z" style="fill:#FF9800"></path><path d="M382.89,133.07V119.92h5.64v2h-3.66v3.59h2.67v2h-2.67v3.59h3.66v2Z" style="fill:#FF9800"></path><g style="opacity:0.1;isolation:isolate"><path d="M354.24,72.37,313.34,225.6h0l-.46,1.72h0l-.74,2.76h0l-.46,1.72-21.36,80V215l40-149.92h1.31a2.68,2.68,0,0,1,2.45,1.71l1.57,3.88a2.68,2.68,0,0,0,2.45,1.69Z" style="fill:#fff"></path><polygon points="432.42 150.63 432.42 247.47 406.9 343.04 406.28 345.36 402.08 361.13 376.23 361.13 380.43 345.37 381.11 342.83 384.49 330.17 385.16 327.64 386.52 322.58 387.19 320.05 388.54 314.98 389.21 312.45 410.48 232.79 410.48 232.78 411.47 229.1 411.47 229.09 432.42 150.63" style="fill:#fff"></polygon><path d="M368.25,72.37,327.6,224.65l-.24.91-2.23,8.34-.24.91L291.46,360.05a3.84,3.84,0,0,1-1.14-2.79V342.53l28.76-107.72.24-.91,2.22-8.34.25-.91L362.44,72.37Z" style="fill:#fff"></path></g><path d="M405.25,206.32a43.9,43.9,0,0,1-34.89,43,44.38,44.38,0,0,1-18,0,43.89,43.89,0,1,1,52.87-43Z" style="fill:#FF9800;isolation:isolate"></path><path d="M383.9,202.67H372a1.65,1.65,0,0,0-1.65,1.65v45a44.38,44.38,0,0,1-18,0v-45a1.65,1.65,0,0,0-1.66-1.65H338.83a1.66,1.66,0,0,1-1.17-2.83l22.54-22.53a1.65,1.65,0,0,1,2.34,0l22.53,22.53A1.66,1.66,0,0,1,383.9,202.67Z" style="fill:#fff;opacity:0.6000000000000001"></path></g></svg>